<svg width="1440" height="1024" viewBox="0 0 1440 1024" fill="none" xmlns="http://www.w3.org/2000/svg">
<g clip-path="url(#clip0)">
<rect width="1440" height="1024" fill="#D5FBFF" fill-opacity="0.36"/>
<g clip-path="url(#clip1)">
<path d="M697.983 -34.2022C697.4 -14.8878 690.165 14.3641 689.15 19.2077C688.511 22.3401 683.512 30.5162 676.709 42.4652C661.035 70.1859 660.001 90.1809 665.432 108.234L700.445 107.804C706.515 93.4733 740.869 78.0018 717.49 61.4193C716.551 55.2247 709.973 34.229 712.736 24.9821C716.062 14.0739 718.035 8.72991 716.795 -3.93957C716.269 -9.21352 710.894 -25.7559 710.931 -34.2022H697.983Z" fill="#0D527C"/>
<path d="M608.356 146.711L615.066 142.458C621.794 138.215 620.102 137.874 618.824 134.952C617.64 132.22 608.037 132.821 604.203 133.641C600.971 134.322 592.326 133.271 589.939 134.222C588.98 134.602 589.939 134.812 592.72 134.962C594.855 135.096 596.936 135.41 598.884 135.893C596.817 137.504 585.109 136.243 583.399 138.145C582.572 139.075 596.554 137.424 597.907 138.385C597.907 138.385 597.249 139.005 590.503 140.106C586.631 140.736 582.647 141.377 582.421 142.107C582.027 143.368 589.694 141.287 599.336 140.827C599.336 140.827 595.408 141.897 591.649 142.768C588.191 143.549 584.827 144.089 585.616 144.87C586.406 145.65 591.593 144.219 595.013 143.459C599.649 142.396 604.61 141.792 609.653 141.677C610.335 141.649 611.02 141.649 611.702 141.677C605.462 146.331 608.356 146.711 608.356 146.711Z" fill="#FF8B66"/>
<path d="M611.532 141.699C611.532 141.699 610.893 139.267 613.411 137.936C611.981 138.168 610.782 138.692 610.077 139.393C609.372 140.095 609.219 140.917 609.652 141.679C610.279 141.662 610.907 141.669 611.532 141.699Z" fill="#EF6E4B"/>
<path d="M744.365 196.239C753.066 190.375 760.095 140.197 744.365 122.074C744.365 122.074 713.581 119.432 689.15 123.885C689.15 123.885 683.286 189.114 697.982 197.25L744.365 196.239Z" fill="#0E3944"/>
<path d="M694.918 161.012C672.253 158.1 668.025 157.189 655.339 123.243C655.339 123.243 622.338 143.449 615.873 141.947C615.873 141.947 617.997 140.136 613.43 135.943C612.657 135.223 611.571 134.611 610.263 134.16C608.955 133.709 607.463 133.432 605.912 133.351C604.973 129.348 638.444 102.078 649.137 100.326C659.831 98.575 688.585 117.159 692.889 123.243C697.192 129.328 694.918 161.012 694.918 161.012Z" fill="#CE364C"/>
<path d="M729.104 166.478C727.713 167.879 703.244 165.548 700.914 164.477C698.583 163.406 710.085 158.702 716.268 160.053C722.451 161.404 730.758 164.847 729.104 166.478Z" fill="#B72E48"/>
<path d="M746.488 44.6456C745.098 38.4709 742.485 34.3478 741.452 29.154C739.93 21.5883 748.612 10.6401 742.993 -1.53901C740.324 -7.30332 736.453 -26.3376 734.442 -36.8654H721.286C721.286 -36.7654 721.286 -36.6553 721.286 -36.5652C717.828 -10.946 718.599 18.5961 716.043 30.2048C714.972 35.1084 708.526 43.0544 706.082 49.3691C706.082 49.3691 698.565 67.7428 693.303 69.284C672.047 75.5787 665.489 108.203 665.489 108.203L717.659 106.902C727.519 102.287 735.156 96.4786 739.927 89.9658C744.698 83.4531 746.465 76.4258 745.079 69.4741C745.079 69.4741 745.079 69.2239 745.248 68.7936C748.03 57.5252 747.766 50.2397 746.488 44.6456Z" fill="#105E99"/>
<path d="M743.387 75.5404C733.896 64.1618 646.506 67.6645 649.682 78.0422C658.158 105.753 671.201 122.916 671.201 122.916C647.239 144.772 689.149 160.074 689.149 160.074C689.149 160.074 728.296 167.709 749.777 157.942C771.258 148.175 725.796 117.782 725.796 117.782C731.979 109.676 747.465 80.444 743.387 75.5404Z" fill="#F24052"/>
<path d="M732.506 197.148C732.506 197.148 701.647 202.653 695.446 191.084C689.244 179.515 694.863 167.306 709.353 168.127C729.744 169.268 756.487 190.644 732.506 197.148Z" fill="#FF8B66"/>
<path d="M716.964 180.897C716.954 180.52 716.667 180.16 716.165 179.894C715.662 179.629 714.984 179.479 714.276 179.476C713.93 179.405 713.558 179.378 713.188 179.396C712.819 179.414 712.462 179.476 712.145 179.579C711.828 179.682 711.56 179.823 711.361 179.989C711.162 180.156 711.038 180.345 710.998 180.542C710.958 180.738 711.003 180.937 711.129 181.122C711.256 181.308 711.461 181.476 711.729 181.613C711.997 181.75 712.32 181.852 712.674 181.912C713.027 181.971 713.402 181.987 713.769 181.958C714.456 182.034 715.171 181.966 715.766 181.769C716.361 181.571 716.79 181.259 716.964 180.897V180.897Z" fill="#DB614D"/>
<path d="M714.576 187.964C714.474 187.967 714.374 187.984 714.286 188.011C714.198 188.039 714.123 188.078 714.069 188.125C713.642 188.438 713.074 188.688 712.417 188.852C711.76 189.017 711.035 189.09 710.31 189.065C710.227 189.06 710.143 189.063 710.063 189.075C709.982 189.088 709.907 189.108 709.842 189.136C709.777 189.164 709.724 189.199 709.685 189.239C709.646 189.278 709.622 189.321 709.615 189.366C709.604 189.41 709.611 189.456 709.634 189.499C709.656 189.542 709.695 189.583 709.747 189.618C709.8 189.654 709.865 189.683 709.939 189.705C710.013 189.727 710.095 189.741 710.179 189.746C711.148 189.784 712.12 189.688 712.999 189.467C713.878 189.246 714.635 188.908 715.197 188.485C715.241 188.447 715.271 188.404 715.285 188.36C715.299 188.316 715.296 188.27 715.277 188.227C715.258 188.183 715.223 188.142 715.173 188.105C715.124 188.069 715.062 188.038 714.99 188.014C714.866 187.974 714.721 187.956 714.576 187.964V187.964Z" fill="#1A4850"/>
<path d="M700.35 189.744C700.214 189.752 700.083 189.779 699.975 189.824C699.389 190.061 698.697 190.211 697.968 190.26C697.239 190.31 696.499 190.256 695.821 190.104C695.743 190.087 695.66 190.077 695.575 190.077C695.491 190.076 695.407 190.085 695.328 190.101C695.25 190.118 695.178 190.143 695.118 190.174C695.057 190.206 695.009 190.243 694.975 190.285C694.942 190.326 694.924 190.371 694.923 190.416C694.922 190.461 694.938 190.505 694.969 190.547C695.001 190.589 695.047 190.627 695.107 190.659C695.166 190.692 695.236 190.717 695.314 190.735C696.213 190.928 697.19 190.995 698.151 190.928C699.113 190.861 700.025 190.664 700.801 190.355C700.916 190.29 700.98 190.204 700.98 190.115C700.98 190.025 700.916 189.939 700.801 189.874C700.747 189.837 700.679 189.807 700.602 189.784C700.524 189.762 700.438 189.748 700.35 189.744V189.744Z" fill="#1A4850"/>
<path d="M697.211 177.625C697.211 177.625 701.872 176.024 710.01 177.425C710.01 177.425 707.567 172.281 702.492 172.941C697.418 173.602 697.211 177.625 697.211 177.625Z" fill="#1A4850"/>
<path d="M720.215 191.206C724.576 188.005 726.925 184.152 726.924 180.198C726.924 180.198 732.111 183.58 734.818 180.638C737.524 177.696 726.68 173.413 726.68 173.413C726.68 173.413 744.139 172.892 746.188 184.921C747.052 189.965 734.705 194.608 720.215 191.206Z" fill="#0E3944"/>
<path d="M726.285 175.953C723.917 172.551 714.839 166.676 705.236 168.357C705.236 168.357 707.642 163.294 703.639 161.442C703.639 161.442 699.429 157.529 709.032 156.969C712.621 156.8 716.231 157.122 719.52 157.905C722.81 158.688 725.668 159.906 727.826 161.442C722.582 167.657 729.705 175.323 729.705 175.323C729.426 175.197 729.091 175.112 728.732 175.077C728.373 175.041 728.003 175.056 727.658 175.12C727.313 175.183 727.005 175.293 726.764 175.44C726.523 175.586 726.358 175.763 726.285 175.953V175.953Z" fill="#EF6E4B"/>
<path d="M706.872 184.461C706.872 184.461 710.988 185.542 714.032 184.461C711.879 184.685 709.647 184.538 707.661 184.041L706.872 184.461Z" fill="#1A4850"/>
<path d="M694.919 185.291C695.605 185.426 696.36 185.418 697.036 185.27C697.711 185.121 698.257 184.843 698.565 184.491L697.983 184.04C697.813 184.403 697.418 184.724 696.861 184.951C696.305 185.178 695.62 185.298 694.919 185.291V185.291Z" fill="#1A4850"/>
<path d="M698.753 179.337L699.317 180.027C699.019 180.084 698.746 180.172 698.512 180.286C698.278 180.399 698.089 180.536 697.954 180.688C697.82 180.841 697.743 181.006 697.729 181.174C697.714 181.342 697.762 181.51 697.87 181.669C697.949 181.803 698.08 181.926 698.255 182.031C698.43 182.137 698.645 182.221 698.885 182.279C699.437 182.348 700.017 182.309 700.52 182.169L701.196 182.829C700.34 183.059 699.352 183.105 698.434 182.96C698.001 182.877 697.609 182.744 697.284 182.571C696.959 182.398 696.71 182.189 696.554 181.959C696.368 181.71 696.277 181.444 696.287 181.176C696.297 180.909 696.408 180.645 696.613 180.4C696.818 180.156 697.113 179.936 697.481 179.753C697.848 179.57 698.281 179.429 698.753 179.337Z" fill="#DB614D"/>
<path d="M735.212 200.072C754.25 195.499 746.187 184.911 746.187 184.911C744.308 188.914 729.724 191.916 729.724 191.916C730.795 188.794 725.308 185.911 725.308 185.911C723.892 186.979 722.203 187.935 720.29 188.754C719.886 189.308 719.535 189.872 719.237 190.445C718.981 190.944 718.786 191.453 718.655 191.966C718.655 192.226 718.523 192.476 718.505 192.717C718.486 192.957 718.505 193.187 718.505 193.397C718.51 193.732 718.554 194.066 718.636 194.398V194.778L718.467 194.398C718.321 194.068 718.214 193.734 718.147 193.397C718.147 193.177 718.147 192.947 718.035 192.707C717.922 192.466 718.035 192.206 718.035 191.936C718.066 191.376 718.16 190.818 718.317 190.265C718.411 189.944 718.523 189.634 718.636 189.324C717.963 189.573 717.267 189.803 716.55 190.014C716.287 190.235 716.043 190.465 715.798 190.705C715.019 191.501 714.468 192.354 714.163 193.237C714.073 193.531 714.029 193.829 714.032 194.128V194.468V194.128C713.977 193.825 713.977 193.52 714.032 193.217C714.068 192.308 714.359 191.408 714.896 190.545V190.475C712.908 190.971 710.821 191.347 708.676 191.596C708.676 191.906 708.807 192.226 708.901 192.546C709.093 193.2 709.369 193.845 709.728 194.478C709.904 194.764 710.111 195.045 710.348 195.318C710.023 195.068 709.728 194.808 709.465 194.538C708.882 193.936 708.392 193.31 707.999 192.666C707.792 192.356 707.623 192.036 707.454 191.726C706.211 191.851 704.956 191.941 703.695 191.996C703.902 192.526 704.165 193.177 704.541 193.827C704.9 194.515 705.371 195.185 705.95 195.829C706.21 196.116 706.505 196.393 706.834 196.659C706.422 196.423 706.039 196.172 705.687 195.909C704.899 195.293 704.207 194.644 703.62 193.967C703.036 193.316 702.521 192.648 702.079 191.966C700.198 191.999 698.314 191.966 696.441 191.866V192.126C696.471 192.745 696.61 193.362 696.854 193.967C697.06 194.553 697.394 195.124 697.851 195.669C698 195.851 698.169 196.028 698.358 196.199L698.565 196.389L698.302 196.219C698.114 196.109 697.869 195.949 697.587 195.749C696.929 195.236 696.38 194.686 695.952 194.108C695.524 193.52 695.19 192.914 694.956 192.296C694.956 192.116 694.825 191.956 694.787 191.826C693.622 191.726 692.908 191.636 692.908 191.636C691.536 201.633 716.193 204.635 735.212 200.072Z" fill="#0E3944"/>
<path d="M733.22 162.155C733.032 159.693 721.117 155.15 706.909 156.091C692.701 157.031 698.283 163.626 700.895 164.487C700.895 164.487 709.408 161.314 729.085 166.488C729.836 166.262 730.454 165.928 730.869 165.525C731.284 165.122 731.48 164.666 731.434 164.207C731.309 163.809 731.412 163.4 731.731 163.034C732.049 162.668 732.568 162.361 733.22 162.155V162.155Z" fill="#CE364C"/>
<path d="M738.971 56.1563C738.531 55.1692 738.531 54.1411 738.971 53.154C739.797 52.0232 743.368 49.5213 742.729 48.1503C742.09 46.7793 744.984 46.1488 744.759 50.0217C744.533 53.8946 744.853 56.8668 738.971 56.1563Z" fill="#EF6E4B"/>
<path d="M742.824 55.6533L744.853 50.0191C744.853 50.0191 746.263 46.1462 747.672 46.2663C749.082 46.3864 749.777 49.3986 749.777 49.3986C749.777 49.3986 753.31 50.3994 753.536 50.9598C753.761 51.5202 753.78 53.5217 755.547 53.7719C757.313 54.0221 756.825 61.0273 756.825 61.0273C756.825 61.0273 744.308 57.5247 742.824 55.6533Z" fill="#FF8B66"/>
<path d="M749.778 157.94C740.194 161.583 728.222 142.509 726.756 135.584C723.468 119.912 727.696 60.1573 735.683 55.1135C743.671 50.0698 753.067 56.3545 758.236 58.466C763.404 60.5776 755.548 103.35 755.548 103.35C755.548 103.35 768.083 150.935 749.778 157.94Z" fill="#CE364C"/>
<path d="M631.66 190.785C604.383 190.785 582.27 201.131 582.27 213.893C582.27 226.655 604.383 237 631.66 237C658.936 237 681.049 226.655 681.049 213.893C681.049 201.131 658.936 190.785 631.66 190.785Z" fill="#F24052"/>
<path d="M655.284 200.613L628.559 198.532C628.559 198.532 639.723 185.962 670.149 180.708C670.149 180.708 652.615 189.865 655.284 200.613Z" fill="#F24052"/>
<path d="M654.821 211.177H657.827V206H659.523V218.797H655.287C653.846 218.797 652.738 218.469 651.965 217.813C651.186 217.156 650.796 216.201 650.796 214.947C650.796 214.15 651.013 213.456 651.446 212.864C651.874 212.272 652.472 211.83 653.239 211.537L650.233 206.105V206H652.044L654.821 211.177ZM657.827 212.557H655.234C654.396 212.557 653.731 212.773 653.239 213.207C652.741 213.641 652.492 214.221 652.492 214.947C652.492 215.738 652.729 216.345 653.204 216.767C653.673 217.188 654.353 217.402 655.243 217.408H657.827V212.557ZM641.189 211.915H646.735V207.38H640.293V206H648.423V218.797H640.381V217.408H646.735V213.295H641.189V211.915ZM631.126 209.34H636.487L637.691 206H639.432L634.545 218.797H633.068L628.173 206H629.904L631.126 209.34ZM635.978 210.729H631.627L633.807 216.714L635.978 210.729ZM617.143 210.061C617.301 208.707 617.802 207.661 618.646 206.923C619.483 206.19 620.6 205.824 621.994 205.824C623.506 205.824 624.719 206.366 625.633 207.45C626.541 208.534 626.995 209.984 626.995 211.801V213.031C626.995 214.221 626.784 215.267 626.362 216.169C625.935 217.071 625.331 217.763 624.552 218.243C623.772 218.729 622.87 218.973 621.845 218.973C620.485 218.973 619.396 218.592 618.575 217.83C617.755 217.074 617.277 216.025 617.143 214.684H618.839C618.985 215.703 619.305 216.441 619.797 216.898C620.283 217.355 620.966 217.584 621.845 217.584C622.923 217.584 623.77 217.186 624.385 216.389C624.994 215.592 625.299 214.458 625.299 212.987V211.748C625.299 210.359 625.009 209.255 624.429 208.435C623.849 207.614 623.037 207.204 621.994 207.204C621.057 207.204 620.339 207.415 619.841 207.837C619.337 208.265 619.003 209.006 618.839 210.061H617.143ZM650.673 196.408H654.786V185H656.465V196.408H660.569V197.797H650.673V196.408Z" fill="white"/>
</g>
<g clip-path="url(#clip2)">
<g opacity="0.84">
<path opacity="0.84" d="M1365.67 323.799C1385.9 326.119 1406.09 315.559 1419.4 300.139C1432.71 284.719 1440 264.999 1444.92 245.259C1448.65 230.109 1451.11 214.259 1447.92 198.949C1444.73 183.639 1435.06 168.999 1420.48 163.479C1413.48 160.809 1405.6 160.319 1398.98 156.729C1380.57 146.729 1381.31 120.929 1376.83 100.479C1373.23 84.1614 1364.92 69.2593 1352.93 57.6186C1341 46.0886 1323.15 37.9986 1307.87 44.4786C1296.15 49.4186 1289.14 61.4786 1284.53 73.3286C1263.07 128.559 1276.82 190.789 1294.7 247.329C1302.22 271.099 1334.18 319.569 1358.94 322.509" fill="#E8E5E3"/>
<path opacity="0.84" d="M1419.25 133.201C1419.07 131.172 1418.29 129.241 1417.01 127.654C1415.74 126.067 1414.02 124.894 1412.07 124.285C1410.13 123.675 1408.05 123.655 1406.09 124.229C1404.14 124.802 1402.4 125.942 1401.09 127.505C1399.78 129.068 1398.97 130.984 1398.75 133.01C1398.53 135.036 1398.92 137.081 1399.86 138.886C1400.81 140.692 1402.27 142.176 1404.05 143.153C1405.84 144.129 1407.88 144.553 1409.91 144.371C1412.63 144.128 1415.14 142.814 1416.89 140.72C1418.64 138.625 1419.49 135.921 1419.25 133.201Z" fill="#E8E5E3"/>
<path opacity="0.84" d="M1307 12.0003C1306.92 11.1289 1306.59 10.2999 1306.04 9.61827C1305.49 8.93663 1304.75 8.43305 1303.92 8.17127C1303.08 7.9095 1302.19 7.90132 1301.35 8.14776C1300.51 8.3942 1299.76 8.88418 1299.2 9.55565C1298.64 10.2271 1298.29 11.0499 1298.2 11.9198C1298.11 12.7896 1298.28 13.6675 1298.68 14.4422C1299.09 15.2169 1299.72 15.8535 1300.48 16.2715C1301.25 16.6895 1302.13 16.8701 1303 16.7903C1304.16 16.6837 1305.24 16.1197 1305.99 15.2218C1306.74 14.324 1307.1 13.1656 1307 12.0003Z" fill="#E8E5E3"/>
<path opacity="0.84" d="M1438.39 301.369C1438.46 302.193 1438.29 303.02 1437.89 303.746C1437.5 304.472 1436.9 305.064 1436.16 305.447C1435.43 305.831 1434.6 305.988 1433.78 305.899C1432.96 305.811 1432.18 305.48 1431.54 304.949C1430.91 304.419 1430.45 303.712 1430.21 302.918C1429.98 302.124 1429.99 301.279 1430.24 300.49C1430.49 299.701 1430.96 299.004 1431.61 298.486C1432.25 297.967 1433.04 297.652 1433.86 297.579C1434.41 297.53 1434.96 297.589 1435.48 297.753C1436 297.917 1436.49 298.182 1436.91 298.534C1437.33 298.886 1437.68 299.318 1437.93 299.805C1438.19 300.291 1438.34 300.823 1438.39 301.369V301.369Z" fill="#E8E5E3"/>
<path opacity="0.84" d="M1426.72 327.569C1430.01 322.974 1428.95 316.584 1424.36 313.296C1419.76 310.009 1413.37 311.069 1410.08 315.664C1406.8 320.259 1407.86 326.649 1412.45 329.937C1417.05 333.224 1423.44 332.164 1426.72 327.569Z" fill="#E8E5E3"/>
</g>
<path d="M1288.54 389.41C1288.54 386.93 1323.54 384.91 1366.68 384.91C1409.82 384.91 1444.82 386.91 1444.82 389.41C1444.82 391.91 1409.82 393.9 1366.68 393.9C1323.54 393.9 1288.54 391.89 1288.54 389.41Z" fill="#E8E5E3"/>
<path d="M1337.27 84.519L1330.87 46.419C1330.57 43.849 1334.87 37.699 1336.99 36.419C1342.74 32.879 1352.6 30.189 1359.08 31.639C1359.08 31.639 1375.08 36.809 1370.33 53.239C1362.57 72.579 1398.26 96.369 1384.33 96.029" fill="#18203C"/>
<path d="M1332.36 69.2402C1334.82 69.2402 1336.82 67.0956 1336.82 64.4502C1336.82 61.8047 1334.82 59.6602 1332.36 59.6602C1329.9 59.6602 1327.9 61.8047 1327.9 64.4502C1327.9 67.0956 1329.9 69.2402 1332.36 69.2402Z" fill="white"/>
<path d="M1351 55.3486C1351.31 55.4586 1354.06 55.5686 1354.37 55.5686C1355.71 55.5686 1358.78 55.2586 1359.22 58.9986C1359.35 60.4469 1358.9 61.8877 1357.98 63.0102C1357.05 64.1327 1355.73 64.8468 1354.28 64.9986C1353.69 64.9986 1352.35 65.1586 1351.95 65.6186C1350.74 67.0386 1352.02 78.0586 1351.09 81.9286C1349.02 90.4686 1353.41 86.4386 1353.41 86.4386C1353.41 86.4386 1324.91 119.079 1332.78 86.4386C1332.78 86.4386 1334.43 66.1586 1334.33 66.0586C1332.7 64.3086 1326.5 63.5886 1330.33 49.0586C1332.84 39.6686 1334.33 49.2286 1341.83 38.0586C1343 39.2786 1341.82 51.8186 1351 55.3486Z" fill="#FFBBB5"/>
<path d="M1357.71 60.0806C1357.71 60.0806 1355.62 55.3406 1352.96 61.7006Z" fill="#FA786B"/>
<path d="M1342.25 55.0007C1341.58 54.9265 1340.89 55.0575 1340.3 55.3766C1339.7 55.6958 1339.21 56.1881 1338.89 56.7894C1338.58 57.3906 1338.45 58.0727 1338.53 58.7465C1338.61 59.4202 1338.9 60.0541 1339.34 60.5654C1339.79 61.0767 1340.38 61.4416 1341.03 61.6122C1341.69 61.7828 1342.38 61.7512 1343.02 61.5217C1343.66 61.2921 1344.21 60.8752 1344.61 60.3255C1345.01 59.7758 1345.23 59.1189 1345.25 58.4407C1345.3 57.5875 1345.02 56.7471 1344.46 56.1028C1343.9 55.4584 1343.1 55.0623 1342.25 55.0007V55.0007Z" fill="#FF9199"/>
<path d="M1329.21 56.21C1329.94 56.0461 1330.59 55.6387 1331.05 55.0551C1331.52 54.4715 1331.77 53.7465 1331.77 53C1331.8 52.4111 1331.67 51.8249 1331.41 51.2989C1331.14 50.7729 1330.74 50.3253 1330.25 50C1330.25 50 1328.92 53.74 1329.21 56.21Z" fill="#FF9199"/>
<path d="M1336.94 47.3086L1334.74 54.4186L1333.08 53.6286C1333.01 53.5928 1332.95 53.5397 1332.9 53.4741C1332.86 53.4085 1332.83 53.3325 1332.82 53.253C1332.81 53.1735 1332.82 53.0931 1332.85 53.019C1332.88 52.9448 1332.93 52.8794 1332.99 52.8286L1336.94 47.3086Z" fill="#FA786B"/>
<path d="M1342.48 48.0015C1342.89 48.6215 1342.65 46.4515 1341.97 46.0015C1341.83 45.8757 1341.66 45.7815 1341.48 45.725C1341.3 45.6685 1341.1 45.651 1340.92 45.6737C1340.73 45.6963 1340.55 45.7586 1340.38 45.8565C1340.22 45.9544 1340.08 46.0856 1339.97 46.2415C1340.99 46.5083 1341.88 47.1329 1342.48 48.0015V48.0015Z" fill="black"/>
<path d="M1332.28 46.5006C1331.6 46.7006 1333.05 45.1706 1333.87 45.2406C1334.25 45.2613 1334.61 45.4294 1334.87 45.7093C1335.13 45.9892 1335.27 46.3591 1335.26 46.7406C1334.33 46.2903 1333.27 46.2047 1332.28 46.5006V46.5006Z" fill="black"/>
<path d="M1338.86 52.0807C1338.63 52.6907 1338.22 53.0807 1337.95 52.9707C1337.68 52.8607 1337.63 52.2607 1337.86 51.6507C1338.09 51.0407 1338.5 50.6507 1338.78 50.7607C1339.06 50.8707 1339.09 51.4707 1338.86 52.0807Z" fill="black"/>
<path d="M1334.44 49.8219C1334.22 50.4119 1333.83 50.8219 1333.57 50.6719C1333.31 50.5219 1333.27 49.9919 1333.49 49.4119C1333.71 48.8319 1334.1 48.4119 1334.36 48.5619C1334.62 48.7119 1334.66 49.2419 1334.44 49.8219Z" fill="black"/>
<path d="M1334.34 66.0703C1334.34 66.0703 1340.34 67.2903 1343.34 67.0703C1346.34 66.8503 1333.61 75.8203 1334.34 66.0703Z" fill="#FA786B"/>
<path d="M1352.01 71.162C1354.47 71.162 1356.47 69.0175 1356.47 66.372C1356.47 63.7266 1354.47 61.582 1352.01 61.582C1349.55 61.582 1347.55 63.7266 1347.55 66.372C1347.55 69.0175 1349.55 71.162 1352.01 71.162Z" fill="white"/>
<path d="M1337.6 361.141L1335.44 377.631C1335.44 377.631 1331.97 388.561 1328.75 384.331C1326.93 381.886 1324.77 379.708 1322.34 377.861L1321.28 360.711L1337.6 361.141Z" fill="#FFB3AF"/>
<path d="M1329.17 361.75L1328 389C1328 389 1338.19 390.64 1334.4 383.31L1337.25 363L1329.17 361.75Z" fill="#FF9199"/>
<path d="M1321.28 377.772L1308.41 389.002C1307.76 389.522 1308.23 390.412 1309.17 390.422C1309.17 390.422 1336.97 390.252 1337.01 389.812C1337.26 387.102 1336.09 377.622 1335.64 375.152C1335.57 374.802 1332.64 386.822 1332.14 385.702C1331.45 384.212 1323.45 378.412 1322.85 377.852C1322.64 377.663 1322.36 377.552 1322.08 377.537C1321.79 377.523 1321.51 377.605 1321.28 377.772V377.772Z" fill="#18203C"/>
<path d="M1390.46 361.141L1396.3 377.631C1396.3 377.631 1399.77 388.561 1402.99 384.331C1404.81 381.886 1406.97 379.708 1409.4 377.861L1406.78 360.711L1390.46 361.141Z" fill="#FFB3AF"/>
<path d="M1398.89 361.75L1403.77 389C1403.77 389 1393.57 390.64 1397.36 383.31L1390.81 363L1398.89 361.75Z" fill="#FF9199"/>
<path d="M1410.46 377.769L1423.32 388.999C1423.98 389.519 1423.51 390.409 1422.57 390.419C1422.57 390.419 1394.76 390.249 1394.72 389.809C1394.47 387.099 1394.72 375.469 1395.02 375.469C1396.11 375.469 1397.41 386.469 1399.6 385.699C1401.06 385.159 1408.29 378.409 1408.88 377.849C1409.1 377.66 1409.37 377.55 1409.66 377.535C1409.94 377.521 1410.23 377.603 1410.46 377.769V377.769Z" fill="#18203C"/>
<path d="M1363.74 143.171C1369.64 154.361 1372.74 162.561 1376.15 176.791C1380.07 193.301 1407.98 331.641 1409.83 361.661C1404.6 361.991 1393.27 363.151 1390.21 362.971C1380.47 332.971 1350.01 236.541 1345.84 217.671C1345.75 217.075 1345.42 216.541 1344.93 216.186C1344.45 215.83 1343.84 215.683 1343.24 215.776C1342.65 215.868 1342.11 216.194 1341.76 216.681C1341.4 217.167 1341.26 217.775 1341.35 218.371C1343.72 239.921 1339.94 325.371 1340.83 362.311C1338.29 363.701 1323.49 363.031 1320.56 362.641C1317.37 325.641 1302.33 187.971 1327.9 142.641C1339.59 140.871 1351.89 142.791 1363.74 143.171Z" fill="#F9CC48"/>
<path d="M1331.92 143.082C1324.08 165.94 1320.01 189.919 1319.86 214.082C1319.86 253.132 1324.33 356.622 1324.33 356.622" stroke="#325081" stroke-width="0.47" stroke-miterlimit="10"/>
<path d="M1401.49 353.652L1357.62 144.262" stroke="#325081" stroke-width="0.47" stroke-miterlimit="10"/>
<g style="mix-blend-mode:soft-light">
<path d="M1328.66 141.582L1379.25 189.582C1379.25 189.582 1371.72 159.832 1363.17 142.582L1328.66 141.582Z" fill="black"/>
</g>
<path d="M1340.83 356.432L1320.05 356.352" stroke="#325081" stroke-width="0.47" stroke-miterlimit="10"/>
<path d="M1409.5 353.809L1387.99 354.549" stroke="#325081" stroke-width="0.47" stroke-miterlimit="10"/>
<path d="M1279.79 112.259C1279.79 112.259 1311.25 159.099 1318.62 153.519C1318.62 153.519 1327.08 147.109 1322.82 120.939C1322.82 118.399 1322.82 116.629 1322.89 116.239C1322.89 116.239 1324.71 90.3986 1328.67 85.0486C1329.1 84.4586 1330.41 83.3686 1330.24 83.3186C1318.16 80.0786 1313.54 112.689 1310.24 127.769C1310.07 128.399 1287 104.289 1287 104.289C1287 104.289 1274.93 87.1386 1274.09 88.1186C1272.87 89.5386 1277.55 97.1786 1277.55 97.1786C1277.32 97.7516 1276.88 98.2205 1276.33 98.4986C1275.86 98.715 1275.45 99.0498 1275.15 99.4705C1274.85 99.8911 1274.66 100.383 1274.6 100.899C1274.29 102.209 1273.07 102.969 1272.87 103.739C1272.67 104.509 1277.21 110.259 1279.79 112.259Z" fill="#FFBBB5"/>
<path d="M1286.6 104.182C1286.6 104.182 1284.16 96.7523 1283.14 97.0023C1282.12 97.2523 1277.65 99.2923 1277.75 101.152C1277.85 103.012 1281.75 101.482 1281.75 101.482C1281.75 101.482 1281 105.602 1282.94 106.142C1284.88 106.682 1286.6 104.182 1286.6 104.182Z" fill="#FFBBB5"/>
<path d="M1280.6 101.121C1280.6 101.121 1280.7 102.971 1279.28 103.301C1279.28 103.301 1278.97 105.301 1277.14 104.831C1277.14 104.831 1277.65 105.711 1276.53 105.921C1276.53 105.921 1281.31 111.501 1280.6 101.121Z" fill="#FF9199"/>
<path d="M1281.53 97.5405C1280.69 98.1905 1279.81 98.7605 1278.93 99.3205C1278.52 99.6205 1277.99 99.8405 1277.68 100.13C1277.37 100.42 1277.31 100.68 1277.53 100.9C1277.86 101.193 1278.27 101.393 1278.7 101.48C1279.19 101.577 1279.68 101.637 1280.18 101.66C1280.32 101.652 1280.47 101.652 1280.61 101.66C1280.72 101.67 1280.83 101.708 1280.93 101.771C1281.02 101.834 1281.1 101.92 1281.15 102.02C1281.21 102.198 1281.21 102.392 1281.15 102.57L1281.05 102.96C1280.9 103.46 1280.77 103.96 1280.59 104.47H1280.54L1280.81 102.92C1280.81 102.67 1280.95 102.39 1280.87 102.17C1280.79 101.95 1280.43 102.01 1280.18 102.01C1279.11 102.131 1278.04 101.845 1277.18 101.21C1277.08 101.114 1277 100.994 1276.96 100.861C1276.92 100.728 1276.91 100.587 1276.94 100.45C1277.01 100.187 1277.17 99.9537 1277.38 99.7805C1277.81 99.478 1278.27 99.2105 1278.74 98.9805L1281.5 97.4805L1281.53 97.5405Z" fill="#FA786B"/>
<path d="M1277.47 97.0022C1277.69 97.0357 1277.9 97.114 1278.09 97.2322C1278.25 97.3409 1278.41 97.4612 1278.56 97.5922C1278.68 97.7477 1278.78 97.9115 1278.88 98.0822C1278.97 98.2761 1279.03 98.4869 1279.04 98.7022V98.7022C1278.5 98.1422 1277.97 97.5822 1277.47 96.9922V97.0022Z" fill="#FA786B"/>
<path d="M1275.4 99.7089C1275.87 100.029 1276.29 100.379 1276.71 100.709C1277.13 101.039 1277.52 101.419 1277.95 101.709C1278.38 101.999 1278.78 102.409 1279.17 102.709C1279.34 102.858 1279.55 102.965 1279.77 103.019C1279.89 103.053 1280.01 103.06 1280.13 103.037C1280.25 103.015 1280.36 102.964 1280.46 102.889C1280.38 103.003 1280.27 103.096 1280.14 103.161C1280.01 103.225 1279.87 103.259 1279.73 103.259C1279.45 103.246 1279.18 103.156 1278.94 102.999C1278.47 102.698 1278.03 102.364 1277.61 101.999C1276.77 101.287 1276 100.493 1275.32 99.6289L1275.4 99.7089Z" fill="#FA786B"/>
<path d="M1279.38 103.312C1279.46 103.671 1279.44 104.043 1279.33 104.393C1279.22 104.743 1279.02 105.059 1278.76 105.312C1278.59 105.439 1278.39 105.525 1278.18 105.561C1277.97 105.598 1277.75 105.584 1277.55 105.522C1277.19 105.424 1276.85 105.254 1276.55 105.022C1276.05 104.58 1275.6 104.08 1275.22 103.532C1274.83 103.001 1274.49 102.431 1274.22 101.832V101.832C1274.61 102.342 1275.01 102.832 1275.42 103.322C1275.82 103.816 1276.27 104.272 1276.76 104.682C1276.97 104.911 1277.25 105.067 1277.55 105.13C1277.86 105.193 1278.18 105.159 1278.46 105.032C1278.93 104.601 1279.21 104.006 1279.25 103.372L1279.38 103.312Z" fill="#FA786B"/>
<path d="M1277.27 104.5C1277.38 104.907 1277.38 105.333 1277.27 105.74C1277.22 105.966 1277.13 106.182 1277.01 106.38C1276.91 106.513 1276.77 106.616 1276.62 106.68C1276.5 106.723 1276.38 106.756 1276.26 106.78C1275.81 106.84 1275.35 106.753 1274.96 106.53C1274.77 106.431 1274.59 106.321 1274.41 106.2C1274.24 106.043 1274.13 105.836 1274.08 105.61C1274.19 105.762 1274.34 105.891 1274.5 105.99C1274.68 106.066 1274.86 106.127 1275.05 106.17C1275.4 106.319 1275.79 106.388 1276.17 106.37C1276.59 106.37 1276.8 106.01 1276.94 105.65C1277.08 105.293 1277.17 104.915 1277.19 104.53L1277.27 104.5Z" fill="#FA786B"/>
<path d="M1333.14 82.8102C1333.14 82.8102 1322.42 82.1502 1319.3 89.0002C1316.18 95.8502 1309.3 126.44 1309.3 126.44L1288.5 104.29L1277.7 115.76C1277.7 115.76 1309.94 158.33 1317.8 155.7C1325.66 153.07 1333.23 92.1502 1333.14 82.8102Z" fill="#6AAAE6"/>
<path d="M1330.73 91.14C1325.73 106.39 1318.84 121.3 1312.65 136.14C1310.74 140.71 1308.76 145.25 1306.76 149.77C1310.57 153.77 1314.67 156.77 1317.76 155.77C1324.86 153.41 1331.76 103.57 1332.91 87C1332.22 88.34 1331.47 89.74 1330.73 91.14Z" fill="#006ED2"/>
<path d="M1333 83.1492C1333.34 84.0392 1319.26 111.329 1319.66 120.019C1320.06 128.709 1303.13 207.239 1302.66 208.559C1302.66 208.559 1373.54 208.359 1388.59 208.559C1374.72 133.419 1374.72 101.929 1366.6 84.2692C1366.6 84.2692 1354.69 78.4392 1351.73 78.1992C1351.73 78.1992 1334.9 90.4592 1333 83.1492Z" fill="#6AAAE6"/>
<path d="M1366.6 84.2694C1366.6 84.2694 1365.13 83.5494 1363.11 82.6094C1361.37 94.1094 1357.91 105.419 1355.3 116.689C1351.92 131.223 1348.63 145.776 1345.42 160.349C1341.89 176.349 1338.47 192.396 1335.16 208.489C1355.94 208.489 1380.51 208.489 1388.66 208.559C1374.72 133.419 1374.72 101.929 1366.6 84.2694Z" fill="#006ED2"/>
<path d="M1376.72 168.002C1376.32 164.932 1378.53 171.942 1380.88 181.112C1381.62 183.972 1378.2 183.022 1375.23 174.112L1376.72 168.002Z" fill="#FF9199"/>
<path d="M1403.57 127.089C1405.73 123.089 1405.86 120.529 1403.21 116.869C1398.66 110.599 1389.68 101.669 1375.82 89.6987C1360.72 76.6987 1356.27 92.0287 1356.27 92.0287C1356.27 92.0287 1382.1 121.629 1384.92 124.489C1381.67 131.489 1375.62 145.859 1371.45 152.339C1371.23 152.694 1370.97 153.029 1370.69 153.339C1369.1 154.909 1367.95 156.872 1367.37 159.029C1366.02 164.299 1364.12 172.599 1365.54 172.339C1367.63 171.969 1370.41 164.689 1370.41 164.689C1370.41 164.689 1368.84 184.279 1372.14 184.689C1372.49 184.309 1375.14 171.999 1374.75 169.759C1374.75 169.759 1373.75 184.139 1374.75 185.059C1377.53 187.489 1377.01 183.379 1377.01 183.379L1377.92 159.529C1377.92 159.529 1395.77 141.589 1403.57 127.089Z" fill="#FFBBB5"/>
<path d="M1384.92 124.49C1384.28 125.86 1371.48 150.22 1370.67 152.04C1375.33 155.04 1376.67 158.4 1381.3 161.49C1383.91 157.49 1403.3 130.75 1405.14 127.26C1407.3 123.26 1405.86 120.53 1403.21 116.87C1398.66 110.6 1389.68 101.67 1375.82 89.7001C1360.72 76.7001 1357.17 86.1801 1357.17 86.1801C1357.17 86.1801 1337.42 94.8201 1384.92 124.49Z" fill="#6AAAE6"/>
<g opacity="0.66">
<path opacity="0.66" d="M1250 21.2391C1255.94 14.3691 1263.58 10.2891 1272.06 10.2891C1283.35 10.2891 1292.26 16.2291 1292.26 27.6891C1292.26 38.6891 1278.77 41.4391 1278.77 46.5291V51.1991H1263.07L1263 44.4091C1263 36.5991 1276.5 32.1891 1276.5 27.5191C1276.5 24.2991 1273.19 23.5191 1270.22 23.5191C1266.57 23.5191 1262.07 27.0891 1259.22 30.5191L1250 21.2391ZM1270.45 54.6291C1276.45 54.6291 1280.55 58.7891 1280.55 63.6291C1280.55 68.4691 1276.65 72.3691 1270.45 72.3691C1264.94 72.3691 1260.78 68.0391 1260.78 63.6291C1260.82 62.4023 1261.1 61.1958 1261.61 60.0787C1262.12 58.9617 1262.85 57.9562 1263.75 57.1199C1264.64 56.2837 1265.7 55.6332 1266.85 55.2057C1268 54.7782 1269.22 54.5823 1270.45 54.6291V54.6291Z" fill="#A6A6A6"/>
<path opacity="0.66" d="M1296.71 64.7975C1297.06 63.0237 1297.8 61.349 1298.87 59.8921C1299.94 58.4353 1301.32 57.232 1302.91 56.3675C1307.17 54.1675 1311.69 54.6775 1313.91 58.9975C1316.13 63.3175 1311.49 66.8175 1312.49 68.7475L1313.39 70.5075L1307.47 73.5575L1306.12 70.9975C1304.6 67.9975 1308.84 63.7575 1307.93 61.9975C1307.3 60.7875 1305.93 61.1375 1304.78 61.7175C1303.4 62.4275 1302.4 64.6475 1301.97 66.4975L1296.71 64.7975ZM1310.93 73.4175C1311.39 73.1367 1311.9 72.9507 1312.43 72.8707C1312.96 72.7906 1313.5 72.8181 1314.02 72.9515C1314.54 73.085 1315.03 73.3216 1315.45 73.6473C1315.88 73.973 1316.23 74.3812 1316.5 74.8475C1317.42 76.6475 1316.73 78.9075 1314.39 80.1175C1313.48 80.6285 1312.41 80.766 1311.41 80.5009C1310.4 80.2358 1309.54 79.5889 1309 78.6975C1308.56 77.7405 1308.52 76.6496 1308.88 75.6613C1309.24 74.673 1309.98 73.8668 1310.93 73.4175Z" fill="white"/>
<path opacity="0.66" d="M1387.72 36.4105C1389.41 35.7854 1391.23 35.5402 1393.03 35.6922C1394.83 35.8443 1396.57 36.3899 1398.14 37.2905C1402.24 39.7805 1404.14 43.9005 1401.65 48.0605C1399.23 52.0605 1393.73 50.0605 1392.65 51.9405L1391.65 53.6305L1385.94 50.1805L1387.41 47.6905C1389.12 44.8505 1395 46.2205 1396.03 44.5205C1396.74 43.3505 1395.7 42.3505 1394.62 41.6905C1393.3 40.8905 1390.88 41.1905 1389.08 41.7905L1387.72 36.4105ZM1387.8 53.0505C1388.28 53.2937 1388.7 53.6304 1389.05 54.0405C1389.39 54.4506 1389.65 54.9257 1389.81 55.4378C1389.96 55.9498 1390.02 56.4883 1389.96 57.0213C1389.91 57.5543 1389.75 58.0709 1389.49 58.5405C1388.49 60.2705 1386.15 60.8605 1383.9 59.5405C1383.43 59.3103 1383.01 58.9842 1382.67 58.583C1382.33 58.1818 1382.08 57.7143 1381.93 57.2104C1381.78 56.7065 1381.74 56.1772 1381.81 55.6562C1381.88 55.1353 1382.05 54.6342 1382.32 54.1849C1382.6 53.7356 1382.96 53.3479 1383.39 53.0466C1383.82 52.7453 1384.31 52.537 1384.82 52.4349C1385.34 52.3329 1385.87 52.3394 1386.38 52.454C1386.89 52.5686 1387.38 52.7888 1387.8 53.1005V53.0505Z" fill="#A6A6A6"/>
</g>
</g>
<g clip-path="url(#clip3)">
<path d="M1298.22 884.851C1296.88 883.302 1285.93 891.563 1289.01 896.61C1292.09 901.657 1298.2 900.824 1298.2 900.824C1298.2 900.824 1302.1 889.339 1298.22 884.851Z" fill="#C96F32"/>
<path d="M1284.46 872.512L1290.5 876.99C1296.58 881.458 1295.06 881.816 1293.89 884.893C1292.82 887.769 1284.17 887.137 1280.72 886.273C1277.81 885.556 1270.02 886.663 1267.87 885.662C1267.01 885.261 1267.87 885.04 1270.38 884.882C1272.3 884.743 1274.18 884.412 1275.93 883.902C1274.1 882.206 1263.62 883.533 1261.93 881.531C1261.19 880.551 1273.78 882.29 1275 881.278C1275 881.278 1274.42 880.625 1268.35 879.466C1264.86 878.802 1261.25 878.128 1261.05 877.359C1260.7 876.031 1267.6 878.223 1276.37 878.707C1276.37 878.707 1272.83 877.58 1269.45 876.663C1266.33 875.841 1263.3 875.272 1264.03 874.451C1264.76 873.629 1269.4 875.135 1272.49 875.936C1276.65 877.069 1281.1 877.723 1285.63 877.864C1286.24 877.894 1286.85 877.894 1287.46 877.864C1281.85 872.912 1284.46 872.512 1284.46 872.512Z" fill="#FF8B66"/>
<path d="M1287.41 877.793C1287.41 877.793 1286.83 880.353 1289.1 881.755C1287.81 881.522 1286.73 880.983 1286.08 880.255C1285.43 879.527 1285.27 878.669 1285.63 877.867C1286.22 877.87 1286.82 877.845 1287.41 877.793Z" fill="#EF6E4B"/>
<path d="M1294.9 881.457L1300.76 890.297L1294.96 898.727C1294.96 898.727 1290.57 888.706 1289.01 885.545C1287.46 882.384 1294.9 881.457 1294.9 881.457Z" fill="#FF8B66"/>
<path d="M1361.46 867.781C1361.46 867.781 1341.15 872.375 1335.05 875.895L1318.53 907.737C1318.53 907.737 1317.98 905.514 1316.84 906.42L1298.22 884.851C1298.22 884.851 1297.92 896.61 1289.01 896.61C1289.01 896.61 1307.23 927.873 1317.38 929.633C1327.54 931.392 1345.06 903.807 1345.06 903.807L1361.46 867.781Z" fill="#F2A668"/>
<path d="M1310.78 949.978C1319.25 944.436 1389.29 948.24 1396.94 953.245C1404.59 958.25 1385.63 887.2 1385.63 887.2C1385.63 887.2 1351.08 885.24 1349.14 890.835C1338.98 920.349 1310.78 949.978 1310.78 949.978Z" fill="#C96F32"/>
<path d="M1372.34 863.945C1372.34 863.945 1385.34 860.373 1396.94 863.039L1398.94 873.312C1398.94 873.312 1371.36 879.571 1362.44 877.727C1353.52 875.883 1351.12 871.542 1372.34 863.945Z" fill="#C96F32"/>
<path d="M1294.96 1074.68C1303.52 1054.19 1314.1 1023.17 1315.49 1018.01C1316.37 1014.69 1317.18 1004.15 1319.26 991.21C1319.82 976.459 1322.55 942.741 1335.85 923.574L1367.2 924.038C1365.93 939.243 1389.61 955.648 1360.77 973.234C1357.01 979.799 1344.57 1002.07 1342.76 1011.88C1340.64 1023.47 1337.17 1028.58 1326.42 1041.49C1317.11 1052.67 1310.53 1065.73 1306.57 1074.66L1294.96 1074.68Z" fill="#EF6E4B"/>
<path d="M1401.17 990.313C1399.16 996.793 1396.31 1001.12 1394.76 1006.57C1392.47 1014.51 1398.95 1026.01 1392.4 1038.79C1389.31 1044.84 1383.52 1064.82 1380.44 1075.86H1368.57C1368.57 1075.76 1368.57 1075.65 1368.57 1075.56C1368.57 1048.67 1374.53 1016.55 1373.65 1004.41C1373.28 999.269 1371.96 991.988 1370.4 985.35C1370.4 985.35 1365.79 966.068 1361.29 964.456C1342.91 957.838 1335.9 923.594 1335.9 923.594L1382.81 924.953C1382.81 924.953 1410.07 939.083 1402.91 964.266C1402.91 964.266 1402.91 964.519 1402.91 964.972C1404.12 976.794 1403 984.444 1401.17 990.313Z" fill="#FF8B66"/>
<path d="M1390.24 913.523C1395.8 922.047 1413.04 951.95 1407.4 991.927C1407.4 991.927 1390.61 998.502 1354.52 997.754C1315.47 996.932 1305.94 989.209 1305.94 989.209C1321.26 951.95 1341.11 908.075 1341.11 908.075C1319.48 885.094 1357.23 868.994 1357.23 868.994L1358.01 868.825C1362.97 867.772 1390.47 862.503 1408.43 869.71C1409.62 870.181 1410.75 870.706 1411.82 871.28C1431.2 881.606 1390.24 913.523 1390.24 913.523Z" fill="#CE364C"/>
<path d="M1400.34 833.757C1400.34 833.757 1408.64 828.488 1416.62 833.04C1424.61 837.592 1416.22 846.98 1416.62 848.698C1417.03 850.415 1423.5 850.805 1421.94 853.007C1420.38 855.21 1416.24 855.515 1416.62 856.569C1417.01 857.623 1420.96 859.319 1419.27 860.404C1417.57 861.49 1413.87 860.404 1414.19 862.238C1414.51 864.071 1416.46 866.579 1412.8 866.758C1412.8 866.758 1415.61 864.651 1413.07 863.945C1410.53 863.239 1408.58 864.018 1407.45 861.837C1406.32 859.656 1411.55 858.676 1409.14 857.507C1406.74 856.337 1401.63 856.274 1404.06 854.346C1406.5 852.417 1407.45 850.647 1402.83 849.025C1398.21 847.402 1400.34 833.757 1400.34 833.757Z" fill="#8B383E"/>
<path d="M1364.49 831.189C1355.18 831.031 1354.57 843.749 1365.74 850.514C1376.91 857.278 1379.71 831.431 1364.49 831.189Z" fill="#8B383E"/>
<path d="M1396.3 829.956C1396.3 829.956 1368.57 824.129 1362.9 836.341C1357.23 848.553 1362.37 861.377 1375.43 860.513C1393.79 859.301 1417.88 836.773 1396.3 829.956Z" fill="#FF8B66"/>
<path d="M1382.3 847.068C1382.48 847.403 1382.49 847.765 1382.33 848.105C1382.17 848.444 1381.84 848.743 1381.39 848.961C1380.94 849.18 1380.4 849.306 1379.83 849.322C1379.26 849.339 1378.7 849.245 1378.22 849.054C1377.74 848.863 1377.37 848.584 1377.16 848.256C1376.95 847.928 1376.9 847.566 1377.03 847.222C1377.17 846.878 1377.47 846.567 1377.89 846.334C1378.32 846.101 1378.85 845.956 1379.42 845.919C1380.04 845.843 1380.69 845.92 1381.23 846.134C1381.77 846.348 1382.15 846.683 1382.3 847.068V847.068Z" fill="#DB614D"/>
<path d="M1380.13 839.595C1380.04 839.591 1379.95 839.574 1379.87 839.544C1379.79 839.515 1379.72 839.475 1379.67 839.426C1379.29 839.095 1378.78 838.829 1378.19 838.656C1377.6 838.483 1376.94 838.407 1376.29 838.436C1376.14 838.446 1375.98 838.417 1375.86 838.357C1375.74 838.297 1375.67 838.209 1375.65 838.114C1375.64 838.019 1375.68 837.924 1375.78 837.85C1375.88 837.776 1376.02 837.729 1376.17 837.719C1377.04 837.671 1377.92 837.767 1378.71 837.998C1379.51 838.23 1380.19 838.588 1380.69 839.036C1380.73 839.077 1380.76 839.121 1380.77 839.168C1380.78 839.214 1380.78 839.262 1380.76 839.308C1380.74 839.354 1380.71 839.398 1380.67 839.436C1380.62 839.474 1380.57 839.507 1380.5 839.532C1380.39 839.577 1380.26 839.599 1380.13 839.595V839.595Z" fill="#8B383E"/>
<path d="M1367.32 837.739C1367.2 837.739 1367.08 837.708 1367 837.655C1366.46 837.409 1365.84 837.252 1365.18 837.201C1364.52 837.149 1363.85 837.204 1363.24 837.36C1363.17 837.379 1363.09 837.39 1363.02 837.392C1362.94 837.393 1362.87 837.385 1362.8 837.369C1362.73 837.352 1362.66 837.327 1362.61 837.295C1362.55 837.262 1362.51 837.224 1362.48 837.181C1362.42 837.093 1362.42 836.994 1362.47 836.906C1362.53 836.817 1362.64 836.746 1362.78 836.707C1363.59 836.495 1364.47 836.42 1365.34 836.491C1366.21 836.561 1367.03 836.774 1367.72 837.107C1367.82 837.155 1367.88 837.221 1367.91 837.294C1367.94 837.367 1367.93 837.445 1367.89 837.515C1367.84 837.585 1367.76 837.644 1367.66 837.685C1367.56 837.725 1367.44 837.744 1367.32 837.739V837.739Z" fill="#8B383E"/>
<path d="M1364.49 850.469C1364.49 850.469 1368.69 852.155 1376.02 850.679C1376.02 850.679 1373.82 856.085 1369.16 855.4C1364.51 854.715 1364.49 850.469 1364.49 850.469Z" fill="#1A4850"/>
<path d="M1385.23 836.214C1389.14 839.586 1391.25 843.642 1391.25 847.804C1391.25 847.804 1395.92 844.243 1398.36 847.33C1400.8 850.418 1391.03 854.938 1391.03 854.938C1391.03 854.938 1406.76 855.496 1408.6 842.831C1409.38 837.499 1398.26 832.631 1385.23 836.214Z" fill="#8B383E"/>
<path d="M1390.68 852.219C1388.54 855.791 1380.37 861.986 1371.72 860.216C1371.72 860.216 1373.88 865.548 1370.3 867.487C1370.3 867.487 1366.49 871.617 1375.14 872.207C1378.37 872.382 1381.62 872.04 1384.58 871.214C1387.55 870.388 1390.12 869.105 1392.06 867.487C1387.34 860.943 1393.76 852.872 1393.76 852.872C1393.51 853.007 1393.21 853.099 1392.88 853.139C1392.56 853.179 1392.23 853.165 1391.91 853.099C1391.6 853.033 1391.32 852.917 1391.1 852.762C1390.89 852.608 1390.74 852.42 1390.68 852.219V852.219Z" fill="#EF6E4B"/>
<path d="M1365.88 848.701L1366.4 847.984C1365.86 847.863 1365.42 847.613 1365.17 847.29C1364.92 846.966 1364.89 846.595 1365.08 846.256C1365.15 846.115 1365.27 845.985 1365.43 845.874C1365.59 845.764 1365.78 845.675 1366 845.614C1366.49 845.535 1367.02 845.577 1367.47 845.73L1368.08 845.034C1367.31 844.782 1366.42 844.722 1365.59 844.866C1365.2 844.956 1364.85 845.097 1364.56 845.278C1364.27 845.46 1364.04 845.679 1363.9 845.919C1363.72 846.182 1363.64 846.464 1363.64 846.749C1363.65 847.033 1363.75 847.313 1363.93 847.573C1364.12 847.833 1364.39 848.067 1364.72 848.261C1365.06 848.455 1365.45 848.604 1365.88 848.701Z" fill="#DB614D"/>
<path d="M1378.2 843.946C1378.2 844.726 1377.42 845.327 1376.63 845.295C1375.83 845.263 1375.34 844.61 1375.34 843.83C1375.34 843.051 1376.12 842.45 1376.91 842.482C1377.71 842.513 1378.29 843.167 1378.2 843.946Z" fill="#1A4850"/>
<path d="M1378.96 843.749C1378.96 843.749 1378.3 841.957 1377.27 841.915C1376.24 841.873 1374.54 843.095 1374.54 843.095L1372.68 842.242L1374.48 842.684C1374.48 842.684 1376.03 841.325 1377.46 841.631C1378.88 841.936 1378.96 843.749 1378.96 843.749Z" fill="#1A4850"/>
<path d="M1366.62 842.829C1366.62 843.609 1365.84 844.209 1365.05 844.178C1364.25 844.146 1363.68 843.493 1363.76 842.713C1363.85 841.933 1364.54 841.333 1365.34 841.364C1366.13 841.396 1366.71 842.039 1366.62 842.829Z" fill="#1A4850"/>
<path d="M1367.38 842.632C1367.38 842.632 1366.72 840.841 1365.69 840.798C1364.66 840.756 1362.97 841.947 1362.97 841.947L1361.1 841.093L1362.9 841.536C1362.9 841.536 1364.46 840.177 1365.88 840.482C1367.3 840.788 1367.38 842.632 1367.38 842.632Z" fill="#1A4850"/>
<path d="M1378.18 832.692C1378.18 832.692 1373.99 846.39 1391.25 847.812C1391.25 847.812 1397.43 841.279 1405.57 845.852C1405.57 845.852 1414.29 830.953 1393.72 828.572C1393.72 828.572 1389.73 822.872 1373.78 824.684C1351.49 827.213 1345.28 843.987 1357.7 860.509C1357.75 860.551 1346.84 830.732 1378.18 832.692Z" fill="#8B383E"/>
<path d="M1408.43 869.71C1406.1 870.511 1403.35 871.365 1399.97 872.271C1340.45 888.845 1354.44 873.324 1354.44 873.324C1354.48 872.19 1355.07 871.089 1356.13 870.163C1356.65 869.669 1357.26 869.213 1357.94 868.804C1362.8 867.75 1389.27 862.745 1407.23 869.268C1407.69 869.436 1408.06 869.563 1408.43 869.71Z" fill="#EF6E4B"/>
<path d="M1408.43 869.709C1406.1 870.509 1403.35 871.363 1399.97 872.269C1340.45 888.844 1354.44 873.323 1354.44 873.323C1354.48 872.188 1355.07 871.088 1356.13 870.162C1358.74 870.965 1361.42 871.669 1364.17 872.269L1365.18 874.545L1370.26 872.501C1382.78 872.538 1395.25 871.474 1407.3 869.34C1407.69 869.435 1408.06 869.561 1408.43 869.709Z" fill="#FF8B66"/>
<path d="M1396.94 866.012C1384.84 871.854 1375.37 879.546 1369.45 888.339C1359.29 903.196 1387.65 965.427 1387.65 965.427C1387.65 965.427 1405.84 962.466 1419.81 956.934L1399.04 913.206C1399.04 913.206 1421.47 884.23 1421.89 879.488C1421.92 879.488 1418.06 869.131 1396.94 866.012Z" fill="#FFB878"/>
<path d="M1404.12 866.939C1404.12 866.939 1406.74 872.123 1404.81 883.05C1404.81 883.05 1400.34 880.943 1391.88 881.29C1378.36 891.941 1370.88 905.072 1370.58 918.644C1370.58 918.644 1361.63 897.127 1368.08 886.201C1374.53 875.274 1396.94 863.02 1396.94 863.02L1404.12 866.939Z" fill="#F2A668"/>
<path d="M1361.46 867.781C1361.46 867.781 1342.84 884.556 1342.37 890.32C1341.89 896.083 1342.37 914.744 1342.37 914.744L1311.02 954.784C1311.02 954.784 1304.84 945.849 1335.02 915.671C1335.02 915.671 1331.33 896.326 1333.02 890.256C1334.72 884.187 1343.18 872.27 1361.46 867.781Z" fill="#FFB878"/>
<path d="M1342.37 914.743C1342.37 914.743 1342.08 890.772 1348.26 881.026C1354.44 871.279 1372.34 863.945 1372.34 863.945C1372.34 863.945 1349.95 868.539 1341.32 880.414C1342.69 880.174 1344.13 880.085 1345.55 880.151C1345.55 880.151 1336.24 885.725 1342.37 914.743Z" fill="#F2A668"/>
<path d="M1421.92 879.488C1421.92 879.488 1440.3 923.48 1434.72 927.167C1429.13 930.855 1422.31 937.609 1412.19 923.437C1406.21 915.218 1402.22 906.494 1400.34 897.548C1400.34 897.548 1410.07 879.752 1421.92 879.488Z" fill="#F2A668"/>
<path d="M1408.65 900.88C1408.65 900.88 1421.55 900.7 1424.6 895.432C1424.6 895.432 1414.64 893.24 1408.65 900.88Z" fill="#C96F32"/>
<path d="M1409.58 888.339L1414.15 899.993C1414.15 899.993 1421.92 898.939 1423.62 895.778L1420.23 888.297L1409.58 888.339Z" fill="#FF8B66"/>
<path d="M1413.8 877.138L1410.89 882.681C1407.86 888.223 1409.48 888.212 1412.36 890.815C1415.03 893.249 1422.72 890.699 1425.43 889.108C1427.71 887.77 1435.58 887.001 1437.02 885.61C1437.6 885.041 1436.67 885.03 1434.23 885.462C1432.36 885.764 1430.42 885.881 1428.49 885.81C1429.22 883.808 1439.83 882.649 1440.08 880.426C1440.2 879.372 1429.49 883.829 1427.78 883.165C1427.78 883.165 1427.93 882.428 1432.86 880.004C1435.7 878.592 1438.66 877.149 1438.43 876.422C1437.99 875.105 1432.82 878.719 1424.88 881.163C1424.88 881.163 1427.52 879.309 1430.15 877.686C1432.77 876.064 1435.04 874.999 1433.89 874.388C1432.74 873.777 1429.29 876.253 1426.86 877.707C1423.7 879.637 1420.01 881.2 1415.96 882.322C1415.42 882.48 1414.85 882.614 1414.27 882.723C1416.45 876.917 1413.8 877.138 1413.8 877.138Z" fill="#FF8B66"/>
<path d="M1414.15 882.725C1414.15 882.725 1416.2 884.969 1414.97 886.792C1415.5 886.538 1415.95 886.22 1416.29 885.857C1416.62 885.494 1416.84 885.093 1416.92 884.677C1417.01 884.261 1416.96 883.839 1416.78 883.435C1416.6 883.031 1416.3 882.654 1415.88 882.324C1415.32 882.483 1414.74 882.616 1414.15 882.725V882.725Z" fill="#EF6E4B"/>
<path d="M1272.53 856.159C1299.88 856.159 1322.05 844.035 1322.05 829.08C1322.05 814.124 1299.88 802 1272.53 802C1245.17 802 1223 814.124 1223 829.08C1223 844.035 1245.17 856.159 1272.53 856.159Z" fill="#FFB878"/>
<path d="M1296.19 844.641L1269.4 847.085C1269.4 847.085 1280.52 861.837 1311.1 867.969C1311.1 867.969 1293.52 857.232 1296.19 844.641Z" fill="#FFB878"/>
<path d="M1239.97 823.768H1241.22V828.853C1241.22 829.547 1241 830.098 1240.57 830.507C1240.14 830.915 1239.57 831.119 1238.86 831.119C1238.1 831.119 1237.51 830.928 1237.1 830.546C1236.69 830.165 1236.48 829.633 1236.48 828.953H1237.74C1237.74 829.338 1237.83 829.628 1238.02 829.824C1238.22 830.017 1238.49 830.113 1238.86 830.113C1239.19 830.113 1239.46 830.002 1239.66 829.779C1239.86 829.554 1239.97 829.243 1239.97 828.848V823.768ZM1246.82 829.331H1244.01L1243.42 831.02H1242.11L1244.85 823.768H1245.98L1248.73 831.02H1247.41L1246.82 829.331ZM1244.36 828.315H1246.47L1245.41 825.307L1244.36 828.315ZM1251.92 829.441L1253.77 823.768H1255.15L1252.54 831.02H1251.32L1248.72 823.768H1250.1L1251.92 829.441ZM1259.86 829.331H1257.05L1256.46 831.02H1255.15L1257.89 823.768H1259.02L1261.77 831.02H1260.45L1259.86 829.331ZM1257.4 828.315H1259.5L1258.45 825.307L1257.4 828.315ZM1266.59 829.152C1266.59 828.833 1266.47 828.587 1266.25 828.415C1266.02 828.242 1265.62 828.068 1265.04 827.892C1264.45 827.716 1263.99 827.52 1263.64 827.304C1262.98 826.889 1262.65 826.348 1262.65 825.68C1262.65 825.096 1262.89 824.615 1263.36 824.236C1263.84 823.858 1264.46 823.668 1265.22 823.668C1265.73 823.668 1266.18 823.761 1266.57 823.947C1266.97 824.133 1267.28 824.399 1267.5 824.744C1267.73 825.086 1267.84 825.466 1267.84 825.885H1266.59C1266.59 825.506 1266.47 825.211 1266.23 824.998C1265.99 824.782 1265.65 824.674 1265.21 824.674C1264.8 824.674 1264.48 824.762 1264.25 824.938C1264.02 825.114 1263.91 825.36 1263.91 825.675C1263.91 825.941 1264.03 826.164 1264.28 826.343C1264.53 826.519 1264.93 826.692 1265.5 826.861C1266.06 827.027 1266.51 827.218 1266.85 827.434C1267.2 827.646 1267.45 827.892 1267.61 828.171C1267.77 828.446 1267.85 828.77 1267.85 829.142C1267.85 829.746 1267.61 830.228 1267.15 830.586C1266.69 830.942 1266.06 831.119 1265.27 831.119C1264.74 831.119 1264.26 831.023 1263.82 830.83C1263.38 830.634 1263.04 830.365 1262.79 830.023C1262.55 829.681 1262.43 829.283 1262.43 828.828H1263.69C1263.69 829.24 1263.82 829.559 1264.1 829.784C1264.37 830.01 1264.76 830.123 1265.27 830.123C1265.7 830.123 1266.03 830.035 1266.25 829.859C1266.47 829.68 1266.59 829.444 1266.59 829.152ZM1274.69 828.659C1274.62 829.432 1274.33 830.037 1273.83 830.472C1273.33 830.903 1272.67 831.119 1271.85 831.119C1271.27 831.119 1270.76 830.983 1270.32 830.711C1269.88 830.435 1269.54 830.045 1269.3 829.54C1269.06 829.036 1268.94 828.45 1268.93 827.782V827.105C1268.93 826.421 1269.05 825.818 1269.29 825.297C1269.53 824.776 1269.88 824.374 1270.33 824.092C1270.79 823.809 1271.31 823.668 1271.9 823.668C1272.71 823.668 1273.35 823.886 1273.84 824.321C1274.33 824.756 1274.61 825.37 1274.69 826.164H1273.43C1273.37 825.642 1273.22 825.267 1272.98 825.038C1272.73 824.806 1272.38 824.689 1271.9 824.689C1271.36 824.689 1270.94 824.89 1270.64 825.292C1270.35 825.69 1270.2 826.276 1270.19 827.05V827.693C1270.19 828.476 1270.33 829.074 1270.61 829.486C1270.89 829.897 1271.3 830.103 1271.85 830.103C1272.34 830.103 1272.71 829.992 1272.96 829.769C1273.21 829.547 1273.37 829.177 1273.43 828.659H1274.69ZM1278.69 828.225H1277.28V831.02H1276.02V823.768H1278.57C1279.41 823.768 1280.06 823.956 1280.51 824.331C1280.97 824.706 1281.19 825.249 1281.19 825.959C1281.19 826.444 1281.08 826.851 1280.84 827.18C1280.61 827.505 1280.28 827.756 1279.86 827.932L1281.49 830.955V831.02H1280.14L1278.69 828.225ZM1277.28 827.214H1278.58C1279 827.214 1279.34 827.108 1279.57 826.896C1279.81 826.68 1279.93 826.386 1279.93 826.014C1279.93 825.626 1279.82 825.325 1279.6 825.113C1279.38 824.9 1279.05 824.791 1278.61 824.784H1277.28V827.214ZM1283.92 831.02H1282.67V823.768H1283.92V831.02ZM1286.94 828.325V831.02H1285.68V823.768H1288.45C1289.26 823.768 1289.9 823.979 1290.38 824.4C1290.86 824.822 1291.09 825.38 1291.09 826.074C1291.09 826.784 1290.86 827.337 1290.39 827.732C1289.93 828.128 1289.27 828.325 1288.43 828.325H1286.94ZM1286.94 827.314H1288.45C1288.9 827.314 1289.24 827.209 1289.48 827C1289.71 826.788 1289.83 826.482 1289.83 826.084C1289.83 825.692 1289.71 825.38 1289.47 825.148C1289.23 824.912 1288.9 824.791 1288.48 824.784H1286.94V827.314ZM1297.64 824.784H1295.38V831.02H1294.13V824.784H1291.89V823.768H1297.64V824.784Z" fill="white"/>
</g>
<g clip-path="url(#clip4)">
<path d="M149.847 961.786C153.902 962.216 149.171 975.312 142.953 974.471C136.735 973.631 139.881 963.857 139.881 963.857C139.881 963.857 145.607 961.346 149.847 961.786Z" fill="#A1B1B5"/>
<path d="M161.312 975.371C159.746 974.326 158.049 973.417 156.249 972.66C152.723 971.66 150.781 971.16 149.294 969.939C147.807 968.719 142.093 968.939 142.093 968.939C142.736 966.216 144.308 963.696 146.627 961.666C146.627 961.666 149.466 962.336 150.314 962.086C152.084 961.576 153.337 959.445 156.79 959.085C159.44 958.659 161.993 957.903 164.36 956.844C164.36 956.844 165.982 957.684 164.729 958.755C163.475 959.825 160.661 960.295 160.28 960.915C160.205 961.036 160.147 961.164 160.108 961.296C160.014 961.52 159.983 961.759 160.017 961.994C160.051 962.229 160.15 962.456 160.305 962.656C160.294 962.682 160.294 962.71 160.305 962.736C161.681 964.007 166.203 964.737 168.243 964.957C171.094 965.207 175.002 965.737 174.105 967.078C173.208 968.419 171.832 966.938 165.392 967.328L165.22 967.848C164.766 967.898 168.907 969.339 172.79 970.019C175.506 970.489 174.24 971.84 173.319 972.02C172.397 972.2 169.755 971.45 167.789 971.12C166.486 970.9 165.134 970.659 164.335 970.509L163.807 971.08C168.194 973.841 170.296 973.301 170.173 974.611C170.05 975.922 166.105 974.991 164.704 974.131C163.678 973.631 162.586 973.229 161.448 972.93C164.286 975.571 166.019 975.511 165.638 976.532C165.257 977.552 162.296 976.292 161.312 975.371Z" fill="#FF8B66"/>
<path d="M155.537 964.699C158.278 964.219 159.936 961.607 160.133 961.277C160.039 961.502 160.008 961.74 160.042 961.976C160.076 962.211 160.175 962.437 160.33 962.638C159.88 963.335 159.181 963.905 158.326 964.273C157.47 964.641 156.498 964.789 155.537 964.699V964.699Z" fill="#EF6E4B"/>
<path d="M102.817 897.32C112.292 907.324 120.488 952.773 120.488 952.773C120.488 952.773 123.757 952.303 123.573 953.884C123.389 955.464 149.846 961.787 149.846 961.787C149.846 961.787 140.015 965.688 142.952 974.472C142.952 974.472 112.23 970.58 103.456 967.419C94.6819 964.258 92.6543 916.298 92.6543 916.298L102.817 897.32Z" fill="#CFD8DC"/>
<path d="M37.7246 979.074C37.7246 999.022 29.8598 1070.95 29.0119 1076.11C27.3898 1085.95 28.2991 1102.96 26.0749 1113.37C24.6143 1120.4 24.0215 1127.53 24.3053 1134.66C24.3053 1134.66 37.6509 1125.87 45.1962 1132.4L48.3176 1123.5L46.0073 1116.5L50.3944 1106.13C47.2976 1101.62 69.7123 1005.4 69.7123 1005.4L71.9858 1005.07L71.0764 1116.42V1122.76C71.0764 1122.76 73.6079 1130.84 73.657 1136L96.3544 1130.74L93.2576 1123.42L95.3099 1113.99L94.5603 1101.38C94.5603 1101.38 101.86 992.95 103.47 981.005L37.7246 979.074Z" fill="#8B383E"/>
<path d="M36.6802 984.005C36.6802 984.005 42.9352 988.417 73.5466 987.937C97.1534 987.577 103.408 982.935 103.408 982.935C103.408 982.935 108.926 903.752 102.855 897.339C98.4437 892.668 89.7678 890.667 78.4621 890.187C74.1979 890.006 69.565 890.036 64.6372 890.187C61.1194 890.323 57.6318 890.783 54.2409 891.557C41.5835 894.428 32.7232 901.191 31.3715 906.493C29.6633 913.136 36.6802 984.005 36.6802 984.005Z" fill="#CFD8DC"/>
<path d="M110.99 945.429C113.583 950.931 112.133 964.546 109.7 968.128C106.935 972.19 94.3389 970.369 94.3389 970.369C94.3389 970.369 94.6461 936.055 92.6553 918.608C90.6645 901.16 81.3496 890.336 81.3496 890.336C81.3496 890.336 103.863 891.036 107.242 901.24C108.923 906.099 109.196 911.208 108.041 916.167C107.848 916.995 107.581 917.811 107.242 918.608H107.439C108.164 918.718 110.634 919.608 112.354 926.921C114.406 935.544 109.688 943.668 109.688 943.668C110.273 944.171 110.718 944.772 110.99 945.429V945.429Z" fill="#F24052"/>
<path d="M90.0004 906.672C90.0004 906.672 93.8714 896.178 89.2385 891.186C84.6056 886.194 79.5918 885.363 79.5918 885.363C79.5918 885.363 85.8222 890.195 86.6456 893.367C87.4689 896.538 90.0004 906.672 90.0004 906.672Z" fill="#CE364C"/>
<path d="M79.5921 885.364C72.993 883.753 56.9561 881.282 48.8701 883.983C48.8701 883.983 48.2065 889.615 51.0452 891.576C53.8839 893.537 81.4354 882.102 89.4722 904.582C89.4722 904.582 91.8808 888.375 79.5921 885.364Z" fill="#B72E48"/>
<path d="M66.3818 936.484C66.0746 965.316 61.9456 973.569 61.9456 973.569C61.9456 973.569 35.8073 976.32 31.1499 972.069C26.4924 967.817 31.1499 954.391 31.1499 954.391C30.3253 952.671 29.6076 950.918 28.9993 949.139V949.139C28.5324 947.809 28.0408 946.278 27.623 944.627C27.2052 942.977 26.8365 941.236 26.5907 939.445C26.0621 935.943 26.7385 932.389 28.5447 929.181C28.9856 928.387 29.5337 927.635 30.1791 926.94C30.1791 926.94 25.1898 910.203 27.4018 902.79C27.8542 901.233 28.7181 899.776 29.9333 898.519C36.5569 891.516 51.9548 891.516 51.9548 891.516C56.2804 892.516 62.8427 901.75 65.3496 919.527C66.1287 925.156 66.4735 930.82 66.3818 936.484V936.484Z" fill="#F24052"/>
<path d="M77.8227 883.433L73.8043 896.308C73.8043 896.308 69.2575 898.039 59.623 892.777C59.623 892.777 64.7352 882.973 60.2006 876C60.2006 876 61.3558 876.06 63.1622 876.24C63.1622 876.24 64.981 883.893 77.8227 883.433Z" fill="#EF6E4B"/>
<path d="M59.6227 869.347C59.4261 884.593 77.4414 886.784 82.0989 881.152C83.9647 878.463 85.2139 875.521 85.7855 872.468C85.9821 871.658 86.1419 870.828 86.2771 870.007C87.1496 864.385 86.4737 858.693 82.5904 857.182C69.2202 851.94 59.807 854.101 59.6227 869.347Z" fill="#FF8B66"/>
<path d="M72.6736 866.816C72.5753 867.656 72.9563 868.376 73.5339 868.416C74.1114 868.456 74.6521 867.816 74.7627 866.966C74.8733 866.115 74.4801 865.405 73.9025 865.365C73.325 865.325 72.772 865.965 72.6736 866.816Z" fill="#1A4850"/>
<path d="M82.0873 868.169C81.989 869.019 82.3823 869.74 82.9598 869.78C83.5374 869.82 84.0781 869.179 84.1887 868.329C84.2993 867.479 83.8938 866.768 83.3162 866.728C82.7386 866.688 82.1856 867.329 82.0873 868.169Z" fill="#1A4850"/>
<path d="M71.9435 870.381C72.2752 869.739 71.7428 868.944 70.7544 868.606C69.766 868.267 68.6959 868.513 68.3642 869.155C68.0325 869.796 68.5649 870.591 69.5533 870.929C70.5417 871.268 71.6118 871.022 71.9435 870.381Z" fill="#DB614D"/>
<path d="M83.7327 871.51C83.8485 871.863 84.1292 872.165 84.5149 872.352C84.9006 872.539 85.3608 872.596 85.7972 872.51C85.9938 871.7 86.1536 870.87 86.2888 870.049C85.9812 869.994 85.6624 869.994 85.3548 870.049C84.9072 870.08 84.4906 870.248 84.1894 870.519C83.8882 870.79 83.7249 871.144 83.7327 871.51V871.51Z" fill="#DB614D"/>
<path d="M72.0595 862.473C72.1808 862.471 72.2994 862.444 72.4036 862.393C73.4 861.966 74.5549 861.852 75.6479 862.073C75.8108 862.106 75.9833 862.085 76.1273 862.015C76.2714 861.945 76.3752 861.831 76.4159 861.698C76.4567 861.565 76.431 861.425 76.3446 861.308C76.2582 861.19 76.1181 861.106 75.9551 861.073C74.5269 860.78 73.0152 860.941 71.7278 861.523C71.6594 861.559 71.6006 861.606 71.5548 861.662C71.509 861.717 71.4772 861.779 71.4612 861.844C71.4451 861.909 71.4452 861.976 71.4615 862.041C71.4777 862.106 71.5097 862.168 71.5557 862.223C71.6063 862.297 71.6792 862.358 71.7674 862.402C71.8557 862.446 71.9563 862.47 72.0595 862.473V862.473Z" fill="#FFB878"/>
<path d="M85.7982 864.866C85.957 864.866 86.1097 864.816 86.2242 864.727C86.3388 864.637 86.4063 864.515 86.4127 864.386C86.4127 863.225 84.7168 862.755 83.6846 862.655C83.5234 862.641 83.3619 862.68 83.2353 862.762C83.1087 862.844 83.0272 862.964 83.0087 863.095C82.9966 863.161 83.0008 863.227 83.0211 863.291C83.0413 863.355 83.0772 863.415 83.1265 863.467C83.1758 863.519 83.2376 863.563 83.3082 863.595C83.3787 863.628 83.4566 863.648 83.5371 863.656C84.127 863.656 85.1961 863.976 85.1838 864.346C85.1805 864.412 85.1932 864.477 85.221 864.539C85.2489 864.601 85.2914 864.657 85.3462 864.706C85.401 864.754 85.467 864.793 85.5403 864.82C85.6137 864.848 85.6929 864.864 85.7737 864.866H85.7982Z" fill="#FFB878"/>
<path d="M80.5872 865.656C80.6152 868.137 81.4918 870.562 83.1187 872.659C83.1187 872.659 83.217 874.3 79.5918 873.66" stroke="#DB614D" stroke-width="0.75" stroke-miterlimit="10"/>
<path d="M81.6803 875.9C80.4129 875.59 79.1245 875.339 77.8216 875.15C74.5774 874.6 72.7832 874.43 72.7832 874.43C72.7832 874.43 72.9061 877.761 77.8216 878.111C81.9015 878.401 81.6803 875.9 81.6803 875.9Z" fill="#1A4850"/>
<path d="M85.5641 860.024C85.5641 860.024 89.8651 859.494 91.5118 857.023C90.5281 857.163 89.5217 857.163 88.5379 857.023C88.5379 857.023 90.5902 855.852 89.8651 853.021C89.8651 853.021 85.5764 853.521 83.9788 853.021L86.3137 851.6C83.6642 851.683 81.0127 851.488 78.4243 851.02C73.8897 850.18 64.3905 849.85 58.7622 853.271C53.134 856.692 49.3982 872.599 61.6992 879.482L60.9496 876.03C60.9496 876.03 58.8359 872.889 59.6593 870.718C60.4826 868.547 61.945 870.308 61.945 870.308C61.945 870.308 66.2092 864.686 66.2092 860.994V857.273C66.2092 857.273 79.7146 854.752 85.5641 860.024Z" fill="#FFB878"/>
<path d="M61.6138 869.45C61.6138 869.45 58.9103 866.338 55.9118 867.899C52.9134 869.46 57.0178 875.122 60.0777 875.152C63.1376 875.182 61.6138 869.45 61.6138 869.45Z" fill="#FF8B66"/>
<path d="M61.6995 904.583C61.6995 904.583 65.8777 893.579 64.5997 890.207C63.3216 886.836 50.0989 882.944 48.87 884.035C47.6411 885.125 46.2648 888.166 47.5674 891.878C47.5674 891.828 55.7763 892.858 61.6995 904.583Z" fill="#CE364C"/>
<path d="M65.2999 919.526C61.3798 923.668 38.0803 923.868 38.0803 923.868C38.0803 923.868 22.7193 942.216 33.7792 947.878C44.6302 953.44 64.0588 949.529 64.7715 949.389C60.4827 952.25 33.644 954.191 28.962 949.129C28.7533 948.903 28.5876 948.654 28.4705 948.388C27.9799 947.167 27.6826 945.899 27.5857 944.617C27.0695 939.775 27.9052 933.112 28.5073 929.17C28.9482 928.376 29.4964 927.625 30.1417 926.929C30.1417 926.929 25.1525 910.193 27.3645 902.78C27.8169 901.223 28.6807 899.765 29.896 898.508C43.6963 898.778 44.8514 919.516 44.8514 919.516C48.6855 920.647 64.7592 919.516 65.3122 919.516L65.2999 919.526Z" fill="#CE364C"/>
<path d="M33.1648 1012.08C33.3492 1014.71 18.1234 1019.87 17.4966 1016.09C16.8699 1012.3 32.7101 1005.44 33.1648 1012.08Z" fill="#A1B1B5"/>
<path d="M20.201 1014.36C19.9306 1015.57 18.542 1023.93 19.2056 1025.42C19.2191 1025.48 19.244 1025.54 19.2793 1025.59C20.0289 1027.03 22.2655 1028.4 22.966 1029.37C23.6664 1030.34 25.1042 1030.54 26.2225 1031.37C27.3408 1032.2 30.1303 1032.32 30.1303 1032.32C30.1303 1032.32 34.542 1034.96 34.6649 1033.52C34.8246 1031.73 32.2071 1030.17 32.2071 1030.17L30.3147 1026.09C30.3147 1026.09 31.4575 1020.64 32.7724 1020.64C34.0873 1020.64 33.5835 1022.9 34.2348 1024.64C34.3794 1024.98 34.6656 1025.26 35.0432 1025.45C35.4208 1025.63 35.8656 1025.7 36.2993 1025.64L36.459 1022.37C36.459 1022.37 36.201 1017.68 35.4514 1016.8C34.7017 1015.92 31.0151 1012.79 31.0151 1012.79L29.4544 1006.08L18.3945 1006.62C18.3945 1006.62 20.4713 1013.15 20.201 1014.36Z" fill="#FF8B66"/>
<path d="M32.1207 899.57C40.8089 903.282 43.8811 918.748 42.9595 925.021L30.6707 955.503C30.6707 955.503 30.3634 959.055 28.8273 959.555L33.1284 1012.08C31.8995 1010.08 19.2421 1011.71 17.4602 1016.08C17.4602 1016.08 8.85808 965.377 10.087 951.462C10.3696 948.7 32.1207 899.57 32.1207 899.57Z" fill="#CFD8DC"/>
<path d="M94.0312 918.609C98.837 918.447 103.574 917.621 108.04 916.168C107.847 916.996 107.58 917.812 107.242 918.609C107.242 918.609 98.7379 919.499 94.0312 918.609Z" fill="#CE364C"/>
<path d="M110.989 945.43C106.354 945.653 101.702 945.469 97.1152 944.88C97.1152 944.88 106.111 944.96 109.699 943.68C110.279 944.181 110.719 944.778 110.989 945.43V945.43Z" fill="#CE364C"/>
<path d="M132.754 859.684C155.028 859.684 173.085 846.771 173.085 830.842C173.085 814.913 155.028 802 132.754 802C110.479 802 92.4219 814.913 92.4219 830.842C92.4219 846.771 110.479 859.684 132.754 859.684Z" fill="#8B383E"/>
<path d="M113.472 847.418L135.346 850.019C135.346 850.019 126.24 865.705 101.343 872.258C101.343 872.258 115.684 860.833 113.472 847.418Z" fill="#8B383E"/>
<path d="M126.99 830.043C126.625 831.372 125.938 832.364 124.932 833.017C123.926 833.665 122.699 833.904 121.25 833.734C120.237 833.616 119.386 833.274 118.696 832.711C118.012 832.142 117.538 831.394 117.274 830.468C117.01 829.542 116.972 828.498 117.16 827.336L117.368 826.159C117.578 824.971 117.976 823.948 118.561 823.092C119.146 822.236 119.877 821.609 120.755 821.211C121.639 820.814 122.602 820.677 123.644 820.799C125.046 820.963 126.108 821.474 126.83 822.33C127.552 823.186 127.861 824.311 127.757 825.707L125.557 825.449C125.613 824.531 125.46 823.848 125.1 823.399C124.746 822.945 124.156 822.67 123.33 822.573C122.37 822.461 121.569 822.723 120.928 823.361C120.293 823.993 119.851 824.981 119.602 826.324L119.405 827.44C119.164 828.802 119.225 829.869 119.587 830.642C119.955 831.415 120.614 831.858 121.562 831.969C122.429 832.07 123.115 831.953 123.62 831.618C124.125 831.283 124.515 830.672 124.791 829.785L126.99 830.043ZM135.463 831.91C135.561 831.356 135.439 830.906 135.096 830.56C134.759 830.214 134.106 829.828 133.136 829.402C132.166 828.977 131.411 828.541 130.872 828.095C129.841 827.238 129.429 826.23 129.634 825.07C129.813 824.054 130.377 823.266 131.326 822.706C132.28 822.147 133.424 821.945 134.756 822.101C135.641 822.205 136.401 822.459 137.036 822.863C137.672 823.267 138.134 823.792 138.424 824.439C138.714 825.08 138.796 825.763 138.667 826.49L136.467 826.233C136.583 825.575 136.465 825.037 136.111 824.618C135.764 824.195 135.204 823.938 134.43 823.847C133.708 823.763 133.119 823.85 132.664 824.109C132.214 824.368 131.941 824.772 131.844 825.32C131.762 825.781 131.909 826.193 132.285 826.555C132.661 826.912 133.318 827.295 134.256 827.705C135.194 828.109 135.93 828.534 136.463 828.98C136.997 829.419 137.361 829.897 137.554 830.415C137.749 830.927 137.789 831.505 137.675 832.152C137.489 833.202 136.934 833.991 136.009 834.518C135.091 835.041 133.937 835.221 132.546 835.058C131.626 834.95 130.809 834.684 130.094 834.258C129.386 833.828 128.869 833.29 128.544 832.645C128.224 832.001 128.134 831.284 128.274 830.494L130.482 830.752C130.356 831.468 130.497 832.05 130.904 832.498C131.312 832.946 131.961 833.223 132.852 833.327C133.62 833.417 134.223 833.331 134.661 833.071C135.106 832.805 135.374 832.418 135.463 831.91ZM146.253 833.174C146.351 832.62 146.228 832.17 145.886 831.824C145.549 831.478 144.895 831.092 143.925 830.667C142.955 830.241 142.2 829.805 141.662 829.359C140.631 828.502 140.218 827.494 140.423 826.334C140.603 825.318 141.167 824.531 142.115 823.97C143.07 823.411 144.213 823.209 145.546 823.365C146.43 823.469 147.19 823.723 147.826 824.127C148.461 824.531 148.924 825.057 149.213 825.703C149.504 826.344 149.585 827.028 149.456 827.755L147.257 827.497C147.373 826.839 147.254 826.301 146.901 825.883C146.554 825.459 145.993 825.202 145.219 825.111C144.498 825.027 143.909 825.114 143.453 825.373C143.004 825.632 142.73 826.036 142.633 826.584C142.552 827.046 142.699 827.457 143.074 827.819C143.451 828.176 144.108 828.559 145.045 828.969C145.983 829.374 146.719 829.798 147.252 830.244C147.786 830.683 148.15 831.162 148.344 831.679C148.539 832.191 148.579 832.77 148.464 833.416C148.279 834.466 147.724 835.255 146.799 835.783C145.881 836.305 144.726 836.485 143.335 836.322C142.416 836.214 141.599 835.948 140.884 835.522C140.176 835.092 139.659 834.554 139.333 833.91C139.014 833.266 138.924 832.548 139.063 831.758L141.272 832.017C141.145 832.732 141.286 833.314 141.694 833.762C142.102 834.21 142.751 834.487 143.641 834.591C144.409 834.681 145.013 834.596 145.451 834.335C145.896 834.069 146.163 833.682 146.253 833.174Z" fill="white"/>
</g>
<g opacity="0.84">
<path opacity="0.84" d="M693.213 869.137C671.416 866.826 649.663 877.392 635.322 892.81C620.982 908.228 613.095 927.939 607.826 947.72C603.807 962.878 601.157 978.736 604.594 994.065C608.031 1009.39 618.471 1024 634.18 1029.54C641.722 1032.23 650.212 1032.72 657.345 1036.3C677.181 1046.3 676.383 1072.13 681.21 1092.59C685.089 1108.91 694.042 1123.82 706.961 1135.46C719.804 1147 739.047 1155.07 755.51 1148.62C768.137 1143.66 775.69 1131.61 780.657 1119.75C803.779 1064.48 788.964 1002.22 769.7 945.659C761.597 921.876 727.163 873.38 700.485 870.428" fill="#E8E5E3"/>
<path opacity="0.84" d="M614.852 891.58C614.772 890.756 614.958 889.928 615.385 889.202C615.812 888.475 616.461 887.883 617.251 887.5C618.04 887.116 618.935 886.959 619.821 887.048C620.706 887.136 621.544 887.467 622.228 887.998C622.911 888.529 623.409 889.236 623.66 890.03C623.91 890.825 623.901 891.67 623.634 892.459C623.367 893.249 622.854 893.947 622.159 894.465C621.465 894.984 620.62 895.299 619.733 895.372C619.144 895.421 618.551 895.362 617.986 895.198C617.422 895.035 616.898 894.769 616.445 894.417C615.991 894.064 615.617 893.632 615.344 893.146C615.071 892.659 614.904 892.127 614.852 891.58V891.58Z" fill="#E8E5E3"/>
<path opacity="0.84" d="M639.01 881.304C644.929 879.96 648.553 874.414 647.105 868.917C645.656 863.421 639.684 860.056 633.766 861.401C627.847 862.746 624.223 868.292 625.671 873.788C627.119 879.284 633.092 882.649 639.01 881.304Z" fill="#E8E5E3"/>
</g>
<path d="M690.401 835.16C690.401 834.52 677.827 837.301 669.176 843.645C669.176 843.645 614.852 867.437 614.668 875.392C614.485 883.346 674.434 941.587 685.014 925.729C685.014 925.729 690.401 922.557 687.384 917.834C684.367 913.112 682.891 901.716 652.906 873.751C652.906 873.751 673.776 856.912 676.147 855.021C676.147 855.021 690.8 854.771 689.076 853.21C687.352 851.649 681.017 851.489 681.017 851.489C681.017 851.489 696.187 842.954 696.014 841.023C695.842 839.092 690.401 835.16 690.401 835.16Z" fill="#F0826C"/>
<path d="M663.153 885.219C680.123 903.469 684.993 914.064 687.384 917.836C690.38 922.559 685.014 925.73 685.014 925.73C677.925 936.366 648.651 913.724 630.173 895.194C641.355 892.433 652.365 889.103 663.153 885.219V885.219Z" fill="#C75842"/>
<path d="M688.354 904.207C688.354 904.207 703.891 926.309 689.895 936.224C675.899 946.14 652.077 919.866 635.021 903.277L664.338 880.805L688.354 904.207Z" fill="#6AAAE6"/>
<path d="M672.645 1005.05C672.645 1005.05 666.773 1070.38 666.18 1088.42C665.588 1106.46 670.619 1176.93 670.619 1176.93L690.272 1176.88C690.272 1176.88 711.077 1052.35 734.845 1008.79L672.645 1005.05Z" fill="#18203C"/>
<path d="M672.602 1005.05C672.602 1005.05 686.199 1059.5 699.968 1098.02C711.131 1129.15 740.695 1178.31 740.695 1178.31L760.455 1177.51L739.456 1098.95C738.186 1094.3 737.386 1089.55 737.064 1084.76C735.836 1066.67 739.844 1030.12 741.514 1006.72L672.602 1005.05Z" fill="#232F51"/>
<path d="M725.751 891.52C725.751 891.52 756.469 894.431 758.408 918.054C760.348 941.677 747.558 1039.63 747.558 1039.63L663.109 1034.23L671.729 923.637C672.038 917.632 674.033 911.806 677.515 906.738C680.747 902.086 677.665 898.734 679.799 898.504L721.064 888.328L725.751 891.52Z" fill="#6AAAE6"/>
<g style="mix-blend-mode:multiply">
<path d="M734.813 898.113C755.284 901.015 757.266 907.058 758.225 918.864C760.164 942.487 747.375 1039.62 747.375 1039.62L669.628 1034.72" fill="#6AAAE6"/>
</g>
<path d="M714.557 865.566L724.653 891.3C724.653 891.3 716.669 900.575 711.379 901.226C700.604 902.566 698.697 893.702 698.697 893.702L698.816 879.574L713.189 867.497L714.557 865.566Z" fill="#F0826C"/>
<path d="M713.188 867.496L698.815 879.573L698.891 884.645C698.891 884.645 710.365 887.047 714.826 869.227" fill="#C75842"/>
<path d="M689.409 983.881L661.256 936.505C660.534 935.251 659.53 934.155 658.313 933.292C657.095 932.429 655.692 931.819 654.199 931.503L612.082 929.071C611.832 929.028 611.573 929.053 611.337 929.143C611.101 929.233 610.899 929.384 610.753 929.579C610.607 929.773 610.525 930.002 610.516 930.239C610.508 930.475 610.572 930.709 610.703 930.912L637.747 975.816C638.453 977.001 639.413 978.039 640.567 978.867C641.722 979.694 643.046 980.294 644.459 980.629L687.987 985.702C688.238 985.751 688.499 985.732 688.738 985.647C688.978 985.561 689.185 985.413 689.336 985.221C689.486 985.028 689.573 984.799 689.586 984.561C689.599 984.323 689.538 984.087 689.409 983.881Z" fill="#18203C"/>
<path d="M685.714 984.329L660.308 938.995C658.8 936.443 654.565 934.042 651.581 933.432L612.071 931.431C611.821 931.388 611.562 931.413 611.326 931.503C611.091 931.593 610.888 931.744 610.742 931.938C610.597 932.132 610.515 932.361 610.506 932.598C610.497 932.835 610.562 933.068 610.692 933.272L637.736 978.176C638.438 979.362 639.395 980.401 640.548 981.229C641.701 982.056 643.025 982.655 644.437 982.988L684.302 986.12C684.548 986.163 684.802 986.14 685.034 986.054C685.266 985.969 685.468 985.824 685.615 985.637C685.763 985.45 685.85 985.228 685.868 984.996C685.885 984.765 685.832 984.534 685.714 984.329Z" fill="#F9CC48"/>
<path d="M670.62 951.613L657.647 955.816L674.919 958.947L670.62 951.613Z" fill="#000F30"/>
<path d="M671.136 970.091C673.291 971.312 698.557 991.553 718.877 1000.86C724.48 1003.42 731.806 997.456 733.821 992.043L752.665 946.018L721.991 931.641C721.851 931.951 716.453 960.606 712.057 970.481C710.473 974.023 711.443 973.483 707.898 972.292L680.187 959.185C679.003 958.184 677.947 957.059 677.041 955.834C675.414 953.182 669.746 950.251 669.746 950.251L673.119 955.894C673.711 956.834 673.011 957.044 670.964 956.224L657.194 950.831C657.194 950.831 654.091 950.211 655.718 951.371C657.345 952.532 662.808 955.714 663.002 955.814C666.492 957.545 653.973 952.062 654.016 953.152C654.059 954.243 661.278 958.055 661.148 958.155C661.019 958.255 653.305 954.973 653.294 955.994C653.283 957.014 660.136 960.166 660.373 960.196C660.814 960.246 654.856 957.344 654.824 957.895C654.792 958.445 669.886 969.381 671.136 970.091Z" fill="#F0826C"/>
<path d="M717.714 951.342C720.095 941.336 721.916 931.801 722.024 931.621L752.698 945.999L740.739 975.214C733.207 967.09 725.633 959.086 717.714 951.342Z" fill="#C75842"/>
<path d="M721.194 993.716C723.984 992.025 730.804 989.974 733.293 993.206C730.74 998.258 724.07 1003.21 718.877 1000.84C718.091 1000.48 717.293 1000.09 716.496 999.699C717.18 997.22 718.861 995.079 721.194 993.716V993.716Z" fill="#C75842"/>
<path d="M724.965 910.889C724.965 910.889 727.852 891.349 744.79 895.401C767.76 900.894 755.822 963.727 749.433 973.533L713.501 956.524L724.965 910.889Z" fill="#6AAAE6"/>
<path d="M684.108 850.818C684.723 855.15 688.246 852.819 688.246 852.819C699.279 856.931 713.878 864.885 713.878 864.885C713.878 864.885 718.285 863.304 718.091 862.234C717.196 857.231 715.688 848.756 714.643 842.903C714.328 841.133 713.323 839.531 711.819 838.404C710.315 837.277 708.417 836.702 706.487 836.79C697.242 837.21 682.018 837.951 680.833 838.361C678.538 839.151 677.116 844.174 683.904 844.254C683.904 844.254 679.066 845.665 679.68 847.966C680.294 850.267 684.108 850.818 684.108 850.818Z" fill="#18203C"/>
<path d="M706.088 859.863C705.937 860.103 705.764 860.33 705.571 860.543C710.409 862.954 713.878 864.845 713.878 864.845C713.878 864.845 718.285 863.264 718.091 862.194C717.768 860.373 717.38 858.472 717.014 856.621C712.822 856.371 708.254 856.501 706.088 859.863Z" fill="#C75842"/>
<path d="M713.447 861.763C713.508 861.844 713.588 861.909 713.682 861.955C713.776 862 713.88 862.024 713.986 862.024C714.092 862.024 714.196 862 714.29 861.955C714.383 861.909 714.464 861.844 714.524 861.763C715.451 860.512 717.444 858.661 719.125 862.684C721.409 868.147 714.815 868.317 714.503 869.167C713.792 870.898 711.572 876.681 707.069 879.573C704.332 881.334 699.376 883.685 696.381 882.204C695.756 881.904 691.09 881.414 686.005 849.977C686.206 850.326 686.48 850.635 686.81 850.886C687.14 851.136 687.521 851.324 687.929 851.437C688.338 851.551 688.767 851.588 689.191 851.547C689.615 851.506 690.026 851.387 690.401 851.197C692.556 850.387 693.946 848.326 696.262 847.255C698.148 846.375 703.373 844.124 707.036 850.137C708.793 852.948 711.939 859.482 713.447 861.763Z" fill="#F0826C"/>
<path d="M718.113 862.474L715.247 865.475C715.247 865.475 715.322 859.512 718.113 862.474Z" fill="#C75842"/>
<path d="M693.709 865.035C693.849 865.716 694.248 866.216 694.614 866.156C694.981 866.096 695.142 865.486 695.002 864.805C694.862 864.125 694.463 863.625 694.097 863.685C693.731 863.745 693.569 864.345 693.709 865.035Z" fill="#000F30"/>
<path d="M689.356 866.117C689.507 866.798 689.905 867.298 690.261 867.238C690.616 867.178 690.8 866.568 690.66 865.887C690.519 865.207 690.11 864.707 689.754 864.767C689.399 864.827 689.194 865.437 689.356 866.117Z" fill="#000F30"/>
<path d="M697.394 857.361C698.471 857.811 696.392 855.26 695.023 855.18C694.722 855.142 694.415 855.159 694.121 855.232C693.827 855.305 693.551 855.431 693.31 855.603C693.069 855.775 692.866 855.99 692.715 856.235C692.563 856.48 692.465 856.75 692.427 857.031C694.071 856.581 695.835 856.698 697.394 857.361V857.361Z" fill="#000F30"/>
<path d="M688.182 861.846C688.948 861.603 689.753 861.481 690.563 861.486C690.341 861.001 689.944 860.604 689.441 860.361C688.938 860.119 688.359 860.046 687.805 860.155" fill="#000F30"/>
<path d="M691.737 865.455L690.842 871.038C690.839 871.058 690.841 871.079 690.847 871.098C690.853 871.117 690.864 871.135 690.878 871.15C690.892 871.166 690.91 871.178 690.93 871.186C690.95 871.194 690.971 871.198 690.993 871.198L693.364 870.948C693.384 870.946 693.404 870.94 693.422 870.93C693.44 870.919 693.455 870.906 693.467 870.889C693.478 870.873 693.485 870.855 693.488 870.835C693.491 870.816 693.489 870.797 693.482 870.778L692.006 865.445C691.997 865.418 691.978 865.395 691.953 865.379C691.928 865.363 691.898 865.354 691.867 865.356C691.837 865.357 691.808 865.367 691.784 865.385C691.76 865.403 691.744 865.428 691.737 865.455V865.455Z" fill="#C75842"/>
<g opacity="0.66">
<path opacity="0.66" d="M713.599 806.214C718.404 801.052 724.567 798 731.43 798C740.545 798 747.742 802.452 747.742 811.007C747.742 819.291 736.839 821.323 736.839 825.145V828.646H724.157L724.093 823.554C724.093 817.701 734.986 814.389 734.986 810.887C734.986 808.466 732.314 807.885 729.922 807.885C726.97 807.885 723.339 810.557 721.001 813.098L713.599 806.214ZM730.126 831.228C734.986 831.228 738.283 834.35 738.283 837.981C738.283 841.613 735.126 844.535 730.126 844.535C725.666 844.535 722.304 841.293 722.304 837.981C722.343 837.062 722.577 836.159 722.991 835.324C723.406 834.489 723.994 833.737 724.721 833.113C725.448 832.489 726.301 832.004 727.23 831.685C728.16 831.367 729.147 831.222 730.137 831.258L730.126 831.228Z" fill="#A6A6A6"/>
<path opacity="0.66" d="M685.144 819.173C685.371 817.377 686.02 815.649 687.044 814.111C688.068 812.573 689.442 811.261 691.069 810.268C695.455 807.737 700.357 807.877 703.126 812.009C705.798 816.012 701.208 820.014 702.436 821.835L703.514 823.526L697.469 827.017L695.789 824.616C693.903 821.805 698.084 817.182 696.952 815.491C696.166 814.331 694.7 814.801 693.548 815.491C692.125 816.302 691.242 818.603 690.94 820.494L685.144 819.173ZM701.165 826.627C701.633 826.313 702.164 826.089 702.727 825.968C703.29 825.848 703.873 825.834 704.442 825.928C705.011 826.021 705.554 826.22 706.039 826.512C706.523 826.804 706.94 827.183 707.263 827.628C708.416 829.339 707.867 831.63 705.453 833.051C704.525 833.62 703.395 833.834 702.3 833.648C701.206 833.461 700.231 832.889 699.581 832.05C699.025 831.134 698.88 830.052 699.176 829.037C699.472 828.022 700.187 827.157 701.165 826.627V826.627Z" fill="#A6A6A6"/>
</g>
<g clip-path="url(#clip5)">
<path d="M119.198 300.939C117.039 299.43 111.498 292.945 110.355 289.698C108.739 285.102 106.834 278.787 104.883 271.902H96.582C99.3066 279.406 101.05 285.691 101.823 288.519C101.788 288.971 101.687 289.417 101.523 289.848C101.292 290.537 100.819 300.999 100.819 300.999H119.417H119.256L119.198 300.939Z" fill="#EF6E4B"/>
<path d="M107.191 279.836C101.419 260.402 94.1344 230.986 93.1993 226.11C92.5874 222.962 92.0448 212.97 90.6133 200.7C90.2438 186.712 88.3736 154.738 79.2995 136.562L57.9418 137.002C58.8077 151.42 42.6451 166.978 62.3173 183.654C64.8686 189.859 73.354 211.002 74.5893 220.304C76.0439 231.296 78.399 236.142 85.7414 248.382C92.0794 258.983 96.5819 271.363 99.2718 279.836H107.191Z" fill="#EF6E4B"/>
<path d="M99.8841 301C99.8841 301 99.0645 291.428 101.223 288.93C101.223 288.93 103.625 292.217 106.892 292.217C109.016 292.217 109.882 287.971 111.706 288.93C113.299 289.769 114.373 292.158 118.633 294.606C122.893 297.054 126.414 296.354 126.714 301H99.8841Z" fill="#0E3944"/>
<path d="M56.8579 271.902H47.0449C48.869 280.655 50.3121 288.089 50.3121 288.089V300.999H61.0024C59.975 297.132 57.008 285.551 57.008 280.665C57.008 277.788 56.9503 274.86 56.8579 271.902Z" fill="#FF8B66"/>
<path d="M34.749 199.851C36.1228 205.996 38.0623 210.102 39.136 215.268C40.6945 222.792 36.2613 233.703 40.7291 245.823C42.8418 251.559 46.7901 270.503 48.9028 280.975H56.984V280.685C56.984 255.186 52.9088 224.78 53.5206 213.22C53.7746 208.344 54.7328 201.439 55.7372 195.144C55.7372 195.144 58.8889 176.859 61.9482 175.331C74.4858 169.056 79.2653 136.582 79.2653 136.582L47.3096 137.901C47.3096 137.901 28.6765 151.3 33.5714 175.161C33.5714 175.161 33.5714 175.4 33.5714 175.83C32.7402 187.011 33.5137 194.265 34.749 199.851Z" fill="#FF8B66"/>
<path d="M48.7763 291.017C48.7763 291.017 48.9148 287.84 54.0176 288.21C59.1203 288.579 58.7393 291.777 58.7393 291.777C58.9441 291.635 59.1986 291.558 59.4609 291.558C59.7232 291.558 59.9777 291.635 60.1824 291.777C60.852 292.296 60.2863 296.703 61.5793 297.632C62.8723 298.561 62.4567 300.999 62.4567 300.999H47.5526C47.5526 300.999 46.7444 297.872 48.2222 296.703C49.6999 295.534 45.9594 291.367 48.7763 291.017Z" fill="#0E3944"/>
<path d="M101.258 258.656C97.3617 259.973 93.1301 260.37 88.9979 259.805V258.306C88.9979 258.306 74.1052 234.365 72.6852 217.839C72.6852 217.839 69.4181 210.525 66.0009 201.502C65.0657 199.024 64.1191 196.406 63.2186 193.788C60.9097 187.154 59.051 180.439 58.6007 175.533C57.1576 161.634 61.0713 125.484 61.0713 125.484L75.6753 125.164H76.8298C76.8298 125.164 81.3437 132.778 85.546 147.716C89.1133 160.815 92.5767 179.52 92.5767 203.66L101.258 258.656Z" fill="#8B383E"/>
<path d="M65.3546 176.232C65.3546 176.232 59.5823 217.619 57.8852 262.962C57.8852 262.962 48.9265 264.241 43.5352 262.962V260.014C43.5352 260.014 34.2994 232.497 36.4121 215.61C36.4121 215.61 25.9064 190.97 33.1334 155.329C35.1074 145.661 38.146 136.179 42.2075 127.012L48.3724 126.523L68.6679 124.914C68.6679 124.914 84.8536 148.745 65.3546 176.232Z" fill="#8B383E"/>
<path d="M52.1698 127.623C52.1698 127.623 46.2474 150.144 33.1211 155.33C35.0951 145.662 38.1337 136.18 42.1952 127.013L48.3601 126.523C49.6695 126.778 50.9459 127.146 52.1698 127.623V127.623Z" fill="#662C33"/>
<path d="M85.4533 147.735C84.2988 146.719 83.4504 145.474 82.9827 144.108C81.4357 139.442 77.2104 129.12 75.6172 125.203H76.7717C76.7717 125.203 81.251 132.797 85.4533 147.735Z" fill="#662C33"/>
<path d="M69.7877 190.43C67.7558 193.258 66.6129 197.315 66.001 201.541C65.0659 199.063 64.1192 196.445 63.2188 193.827C63.669 191.829 65.6662 182.087 66.5667 165.42C67.5826 146.606 64.1885 125.993 64.1885 125.993L65.8279 125.633C65.8279 125.633 74.775 153.24 66.5783 172.225C66.913 171.915 72.2467 166.769 73.7475 162.233C73.7475 162.253 76.2181 181.477 69.7877 190.43Z" fill="#662C33"/>
<path d="M132.186 125.012L126.056 126.62C119.902 128.209 120.561 128.988 119.371 131.796C118.217 134.424 123.585 136.722 126.067 137.142C128.168 137.512 131.944 140.909 133.779 140.799C134.518 140.799 134.149 140.309 132.809 139.38C131.795 138.648 130.922 137.782 130.223 136.812C132.301 136.063 137.543 140.519 139.621 139.42C140.625 138.89 132.382 136.203 132.301 135.014C132.301 135.014 133.029 134.674 137.185 135.713C139.586 136.313 142.034 136.942 142.588 136.422C143.592 135.483 138.328 134.994 133.029 132.556C133.029 132.556 135.73 132.795 138.212 133.165C140.521 133.515 142.553 134.044 142.634 133.165C142.703 132.436 139.171 131.986 136.862 131.616C133.866 131.156 130.989 130.239 128.365 128.909C128.003 128.726 127.655 128.523 127.326 128.299C133.433 126.171 132.186 125.012 132.186 125.012Z" fill="#FF8B66"/>
<path d="M127.337 128.262C127.337 128.262 126.182 130.48 124.035 130.88C124.911 131.114 125.858 131.039 126.67 130.67C127.481 130.301 128.091 129.668 128.364 128.911C128.005 128.716 127.661 128.499 127.337 128.262V128.262Z" fill="#EF6E4B"/>
<path d="M64.1875 84.625C74.4161 86.9431 76.1478 92.2688 86.8035 121.725C90.9621 121.912 95.0571 122.689 98.9254 124.023C104.986 126.201 124.012 128.779 124.012 128.779L122.327 132.906C122.327 132.906 88.0734 133.066 83.3632 130.997C78.653 128.929 67.5355 104.459 67.5355 104.459L64.1875 84.625Z" fill="#FF8B66"/>
<path d="M42.206 127.013C67.004 131.869 76.7246 125.184 76.7246 125.184C91.4787 103.382 64.7181 84.7872 64.7181 84.7872L64.1871 84.6273C60.8045 83.6282 42.0444 78.6322 29.7955 85.4667C28.9844 85.9128 28.2126 86.4105 27.4865 86.9555C14.2794 96.7475 42.206 127.013 42.206 127.013Z" fill="#8BBDDB"/>
<path d="M64.3735 76.7832C64.3735 76.7832 46.9295 72.5766 32.7526 78.7816C32.7526 78.7816 16.6478 44.8092 44.5513 45.1589C72.4548 45.5086 66.8671 70.7281 64.3735 76.7832Z" fill="#FFB878"/>
<path d="M38.0852 47.7675C38.0852 47.7675 57.0416 42.2719 60.8514 53.8225C64.6611 65.3731 61.2092 77.5632 52.3083 76.7439C39.7823 75.5948 23.3081 54.2622 38.0852 47.7675Z" fill="#FF8B66"/>
<path d="M47.6331 63.9618C47.5111 64.2775 47.5053 64.6182 47.6164 64.9369C47.7276 65.2556 47.9502 65.5367 48.2537 65.7412C48.5572 65.9458 48.9265 66.0638 49.3107 66.0791C49.695 66.0943 50.0752 66.006 50.399 65.8263C50.7229 65.6466 50.9743 65.3844 51.1186 65.0758C51.263 64.7672 51.2932 64.4275 51.205 64.1034C51.1169 63.7794 50.9148 63.487 50.6265 63.2665C50.3383 63.0461 49.9781 62.9085 49.5957 62.8727C49.1692 62.7978 48.7257 62.8696 48.3593 63.0729C47.9929 63.2762 47.7324 63.5951 47.6331 63.9618V63.9618Z" fill="#DB614D"/>
<path d="M49.0988 56.9083C49.1618 56.9053 49.223 56.8892 49.2773 56.8613C49.3315 56.8335 49.3772 56.7948 49.4105 56.7484C49.6711 56.4346 50.0199 56.1836 50.424 56.0192C50.8281 55.8548 51.274 55.7825 51.7195 55.8092C51.8236 55.8184 51.9277 55.7915 52.0089 55.7344C52.0901 55.6772 52.1417 55.5945 52.1524 55.5044C52.1631 55.4143 52.132 55.3242 52.066 55.2539C52 55.1837 51.9044 55.139 51.8003 55.1297C51.2029 55.0817 50.6016 55.1721 50.0579 55.3916C49.5142 55.6111 49.0477 55.9518 48.7063 56.3787C48.6788 56.4167 48.6603 56.459 48.6518 56.5033C48.6433 56.5475 48.645 56.5927 48.6568 56.6364C48.6686 56.6801 48.6903 56.7213 48.7206 56.7576C48.7509 56.794 48.7892 56.8248 48.8333 56.8483C48.9114 56.8937 49.005 56.9149 49.0988 56.9083V56.9083Z" fill="#FFB878"/>
<path d="M57.8388 55.1499C57.9241 55.1471 58.0057 55.1189 58.0697 55.0699C58.4309 54.8365 58.8557 54.6881 59.3028 54.6391C59.7499 54.59 60.2041 54.6421 60.6211 54.7902C60.6681 54.8085 60.7188 54.8187 60.7704 54.8202C60.8219 54.8216 60.8733 54.8142 60.9215 54.7984C60.9698 54.7826 61.0139 54.7588 61.0515 54.7282C61.0891 54.6977 61.1194 54.661 61.1406 54.6203C61.1615 54.579 61.1727 54.5345 61.1735 54.4895C61.1744 54.4444 61.1649 54.3997 61.1455 54.3578C61.1262 54.316 61.0974 54.2779 61.0609 54.2457C61.0244 54.2136 60.9808 54.1881 60.9328 54.1707C60.3824 53.9698 59.7803 53.8991 59.1879 53.9658C58.5956 54.0325 58.0344 54.2343 57.5618 54.5504C57.4884 54.614 57.4473 54.7003 57.4473 54.7902C57.4473 54.8801 57.4884 54.9663 57.5618 55.03C57.5952 55.0661 57.6372 55.0956 57.6851 55.1163C57.7329 55.137 57.7854 55.1484 57.8388 55.1499Z" fill="#FFB878"/>
<path d="M59.7662 67.2617C59.7662 67.2617 56.9031 68.8604 51.9043 67.4616C51.9043 67.4616 53.4051 72.5874 56.5222 71.9379C59.6392 71.2884 59.7662 67.2617 59.7662 67.2617Z" fill="#1A4850"/>
<path d="M45.6353 53.7026C42.9564 56.8983 41.5138 60.7455 41.5139 64.6937C41.5139 64.6937 38.3391 61.3164 36.6651 64.2441C34.9912 67.1717 41.6755 71.4582 41.6755 71.4582C41.6755 71.4582 30.939 71.9578 29.6806 59.9675C29.1495 54.9716 36.7344 50.3054 45.6353 53.7026Z" fill="#FFB878"/>
<path d="M41.9058 68.8789C43.3604 72.2662 48.9365 78.1414 54.8359 76.4627C54.8359 76.4627 53.3581 81.5186 55.8172 83.3571C55.8172 83.3571 58.4032 87.274 52.5038 87.8335C50.2985 87.999 48.0808 87.6747 46.0606 86.8914C44.0404 86.1081 42.2846 84.8917 40.9592 83.3571C44.1801 77.1622 39.8047 69.5084 39.8047 69.5084C39.976 69.6337 40.182 69.7183 40.4025 69.7538C40.6229 69.7894 40.8503 69.7747 41.0622 69.7112C41.2742 69.6477 41.4634 69.5376 41.6113 69.3917C41.7592 69.2457 41.8607 69.069 41.9058 68.8789Z" fill="#EF6E4B"/>
<path d="M58.8192 65.5416L58.4728 64.8622C58.6556 64.8052 58.8236 64.7176 58.9673 64.6044C59.1109 64.4912 59.2273 64.3546 59.3099 64.2024C59.3925 64.0502 59.4395 63.8854 59.4484 63.7174C59.4573 63.5494 59.4279 63.3816 59.3618 63.2235C59.3131 63.0897 59.2324 62.9663 59.125 62.8613C59.0176 62.7563 58.8859 62.672 58.7384 62.614C58.3995 62.5406 58.0411 62.5799 57.734 62.7239L57.3184 62.0644C57.8397 61.8255 58.4469 61.7683 59.0154 61.9046C59.2798 61.9891 59.5199 62.1221 59.7192 62.2946C59.9185 62.4671 60.0723 62.6749 60.1699 62.9037C60.2881 63.1531 60.3468 63.4206 60.3425 63.6901C60.3382 63.9597 60.2709 64.2256 60.1447 64.4721C60.0185 64.7185 59.8361 64.9403 59.6083 65.1241C59.3805 65.3079 59.112 65.4499 58.8192 65.5416Z" fill="#DB614D"/>
<path d="M50.4158 61.0345C50.4735 61.7739 50.9584 62.3435 51.4894 62.3135C52.0205 62.2835 52.4246 61.664 52.3668 60.9246C52.3091 60.1852 51.8358 59.6157 51.2932 59.6457C50.7506 59.6756 50.3581 60.2951 50.4158 61.0345Z" fill="#1A4850"/>
<path d="M49.8613 60.8464C49.8613 60.8464 50.3231 59.1478 51.0158 59.1078C51.7085 59.0679 52.8745 60.1969 52.8745 60.1969L54.156 59.3876L52.9207 59.8073C52.9207 59.8073 51.8586 58.5183 50.8888 58.8081C49.9191 59.0978 49.8613 60.8464 49.8613 60.8464Z" fill="#1A4850"/>
<path d="M58.3123 59.9642C58.3123 60.7036 58.8549 61.2732 59.3859 61.2432C59.917 61.2132 60.321 60.5937 60.2633 59.8543C60.2056 59.1149 59.7323 58.5454 59.1897 58.5753C58.6471 58.6053 58.2545 59.2348 58.3123 59.9642Z" fill="#1A4850"/>
<path d="M57.791 59.7878C57.791 59.7878 58.2528 58.0892 58.9455 58.0492C59.6382 58.0093 60.8042 59.1383 60.8042 59.1383L62.0856 58.329L60.8504 58.7487C60.8504 58.7487 59.7882 57.4597 58.8185 57.7495C57.8487 58.0392 57.791 59.7878 57.791 59.7878Z" fill="#1A4850"/>
<path d="M50.4268 50.3648C50.4268 50.3648 53.3015 63.3543 41.5144 64.7032C41.5144 64.7032 37.3121 58.5082 31.7476 62.8447C31.7476 62.8447 25.8136 48.7162 39.8288 46.458C39.8288 46.458 42.5534 41.0524 53.44 42.771C68.6328 45.1691 72.8697 61.0761 64.4074 76.7434C64.3728 76.7834 71.796 48.5064 50.4268 50.3648Z" fill="#FFB878"/>
<path d="M29.7969 85.4664C31.39 86.2257 33.2603 87.0351 35.5692 87.8944C76.1603 103.612 66.6244 88.8936 66.6244 88.8936C66.591 87.8175 66.1892 86.7742 65.4699 85.896C65.1153 85.4276 64.701 84.9953 64.2346 84.6071C60.9213 83.6079 42.8654 78.8617 30.6165 85.0467C30.3048 85.1866 30.0509 85.3265 29.7969 85.4664Z" fill="#EF6E4B"/>
<path d="M29.7969 85.4669C31.39 86.2263 33.2603 87.0356 35.5692 87.8949C76.1603 103.612 66.6244 88.8941 66.6244 88.8941C66.591 87.818 66.1892 86.7748 65.4699 85.8966C63.6907 86.6585 61.8594 87.3259 59.9862 87.8949L59.3397 90.0532L55.8763 88.1148C47.3353 88.1501 38.8313 87.1409 30.6165 85.1172C30.3048 85.1871 30.0509 85.327 29.7969 85.4669Z" fill="#FF8B66"/>
<path d="M67.7778 113.82L61.6476 115.429C55.5058 117.028 56.1523 117.807 54.9632 120.615C53.8088 123.243 59.177 125.541 61.6591 125.96C63.7603 126.33 67.5354 129.717 69.371 129.617C70.1098 129.617 69.7404 129.128 68.4012 128.189C67.3842 127.46 66.5108 126.592 65.8152 125.621C67.8933 124.871 73.1345 129.338 75.2126 128.239C76.217 127.709 67.9741 125.011 67.8933 123.832C67.8933 123.832 68.6206 123.492 72.7767 124.532C75.178 125.121 77.6254 125.751 78.1796 125.241C79.184 124.302 73.9196 123.812 68.6206 121.374C68.6206 121.374 71.322 121.614 73.8041 121.984C76.1131 122.333 78.1449 122.863 78.2257 121.984C78.295 121.254 74.7623 120.795 72.4534 120.435C69.443 119.967 66.5536 119.036 63.9219 117.687C63.5587 117.51 63.2114 117.31 62.8829 117.088C69.0246 114.989 67.7778 113.82 67.7778 113.82Z" fill="#FF8B66"/>
<path d="M26.4021 87.9422C32.7516 84.3651 37.6466 95.6959 36.7923 103.17C36.4113 106.537 26.4021 131.047 26.4021 131.047L56.4182 117.688L58.2538 121.775C58.2538 121.775 44.0885 130.368 35.6378 136.563C27.1871 142.758 18.1361 142.838 15.0536 140.809C11.9712 138.781 16.9816 120.126 18.6902 112.462C20.3988 104.799 22.7078 89.9406 26.4021 87.9422Z" fill="#FF8B66"/>
<path d="M119.222 73.1752C143.993 73.1752 164.073 60.8238 164.073 45.5876C164.073 30.3514 143.993 18 119.222 18C94.4516 18 74.3711 30.3514 74.3711 45.5876C74.3711 60.8238 94.4516 73.1752 119.222 73.1752Z" fill="#8BBDDB"/>
<path d="M105.206 65.5625L124.832 68.0505C124.832 68.0505 116.682 83.0383 94.2734 89.3332C94.285 89.3332 107.169 78.4021 105.206 65.5625Z" fill="#8BBDDB"/>
<path d="M110.714 52.7872L108.524 53.116L107.406 47.5404L101.748 48.3899L102.865 53.9655L100.666 54.2957L98.1514 41.7483L100.35 41.4182L101.397 46.6405L107.055 45.791L106.009 40.5687L108.199 40.2398L110.714 52.7872ZM120.042 40.2727L116.096 40.8652L118.258 51.6545L116.077 51.982L113.914 41.1927L110.003 41.7799L109.65 40.0219L119.689 38.5147L120.042 40.2727ZM124.209 37.8361L129.787 46.9054L131.501 36.7413L134.343 36.3146L136.858 48.8619L134.668 49.1908L133.839 45.0543L132.947 39.4891L131.148 49.7193L129.575 49.9555L123.91 40.8549L125.234 46.3462L126.063 50.4826L123.873 50.8115L121.358 38.2642L124.209 37.8361ZM141.316 46.3995L147.061 45.5369L147.41 47.2777L139.466 48.4704L136.951 35.9231L139.15 35.5929L141.316 46.3995Z" fill="white"/>
</g>
<path d="M214.873 520.055V530.675H192.529V552H180.719V495.076H219.546V505.696H192.529V520.055H214.873ZM259.519 495.076C262.181 495.076 264.786 495.444 267.335 496.181C269.884 496.917 272.178 498.05 274.217 499.579C276.312 501.108 277.955 503.034 279.144 505.356C280.391 507.622 281.014 510.341 281.014 513.513C281.014 516.854 280.164 519.743 278.465 522.179C276.822 524.558 274.642 526.427 271.923 527.786C269.204 529.089 266.259 529.854 263.087 530.08L283.562 552H268.015L248.219 528.721V552H236.409V495.076H259.519ZM248.219 506.121V520.479C249.578 520.933 251.079 521.301 252.722 521.584C254.421 521.811 256.12 521.924 257.819 521.924C261.218 521.924 263.908 521.244 265.891 519.885C267.93 518.469 268.949 516.486 268.949 513.938C268.949 511.162 267.873 509.18 265.721 507.99C263.625 506.744 261.048 506.121 257.989 506.121H248.219ZM316.228 493.802C320.306 493.802 324.13 494.538 327.698 496.011C331.266 497.427 334.41 499.466 337.129 502.128C339.904 504.733 342.056 507.849 343.586 511.474C345.172 515.099 345.965 519.12 345.965 523.538C345.965 527.956 345.172 531.978 343.586 535.603C342.056 539.228 339.904 542.371 337.129 545.033C334.41 547.639 331.266 549.678 327.698 551.15C324.13 552.566 320.306 553.274 316.228 553.274C312.15 553.274 308.299 552.566 304.674 551.15C301.105 549.678 297.933 547.639 295.158 545.033C292.439 542.371 290.287 539.228 288.701 535.603C287.172 531.978 286.407 527.956 286.407 523.538C286.407 519.12 287.172 515.099 288.701 511.474C290.287 507.849 292.439 504.733 295.158 502.128C297.933 499.466 301.105 497.427 304.674 496.011C308.299 494.538 312.15 493.802 316.228 493.802ZM316.228 504.932C312.83 504.932 309.771 505.753 307.052 507.396C304.39 509.038 302.295 511.247 300.765 514.022C299.236 516.798 298.471 519.97 298.471 523.538C298.471 527.05 299.236 530.222 300.765 533.054C302.295 535.829 304.39 538.038 307.052 539.681C309.771 541.267 312.83 542.06 316.228 542.06C319.627 542.06 322.657 541.267 325.319 539.681C327.981 538.038 330.077 535.829 331.606 533.054C333.135 530.222 333.9 527.05 333.9 523.538C333.9 519.97 333.135 516.798 331.606 514.022C330.077 511.247 327.981 509.038 325.319 507.396C322.657 505.753 319.627 504.932 316.228 504.932ZM409.811 495.076V552.425H405.563L371.833 517.676V552H360.024V494.651H364.272L398.001 529.91V495.076H409.811ZM470.514 495.076V505.696H452.332V551.745H440.608V505.696H422.426V495.076H470.514ZM547.23 518.186V527.786H522.082V541.55H550.544V552H510.272V495.076H550.544V505.271H522.082V518.186H547.23ZM617.364 495.076V552.425H613.116L579.386 517.676V552H567.577V494.651H571.825L605.554 529.91V495.076H617.364ZM658.186 493.717C664.19 493.717 669.457 494.935 673.989 497.37C678.52 499.806 682.032 503.204 684.524 507.565C687.073 511.927 688.347 517.053 688.347 522.943C688.347 528.551 687.158 533.648 684.779 538.236C682.4 542.768 679.001 546.364 674.583 549.026C670.165 551.688 664.898 553.02 658.781 553.02C654.872 553.02 650.964 552.821 647.056 552.425C643.204 552.028 639.551 551.49 636.096 550.811V495.926C639.608 495.359 643.204 494.85 646.886 494.396C650.568 493.943 654.334 493.717 658.186 493.717ZM658.441 504.762C656.741 504.762 654.957 504.847 653.088 505.017C651.219 505.187 649.491 505.413 647.906 505.696V541.04C649.605 541.38 651.361 541.635 653.173 541.805C655.042 541.918 656.798 541.975 658.441 541.975C662.179 541.975 665.379 541.182 668.041 539.596C670.703 537.953 672.742 535.716 674.158 532.884C675.574 530.052 676.283 526.88 676.283 523.368C676.283 519.743 675.574 516.543 674.158 513.768C672.742 510.992 670.703 508.812 668.041 507.226C665.379 505.583 662.179 504.762 658.441 504.762ZM751.724 493.717C757.728 493.717 762.996 494.935 767.527 497.37C772.058 499.806 775.57 503.204 778.062 507.565C780.611 511.927 781.886 517.053 781.886 522.943C781.886 528.551 780.696 533.648 778.317 538.236C775.938 542.768 772.54 546.364 768.122 549.026C763.704 551.688 758.436 553.02 752.319 553.02C748.411 553.02 744.503 552.821 740.595 552.425C736.743 552.028 733.09 551.49 729.635 550.811V495.926C733.146 495.359 736.743 494.85 740.425 494.396C744.106 493.943 747.873 493.717 751.724 493.717ZM751.979 504.762C750.28 504.762 748.496 504.847 746.627 505.017C744.758 505.187 743.03 505.413 741.444 505.696V541.04C743.143 541.38 744.899 541.635 746.712 541.805C748.581 541.918 750.337 541.975 751.979 541.975C755.718 541.975 758.918 541.182 761.58 539.596C764.242 537.953 766.281 535.716 767.697 532.884C769.113 530.052 769.821 526.88 769.821 523.368C769.821 519.743 769.113 516.543 767.697 513.768C766.281 510.992 764.242 508.812 761.58 507.226C758.918 505.583 755.718 504.762 751.979 504.762ZM832.903 518.186V527.786H807.754V541.55H836.216V552H795.945V495.076H836.216V505.271H807.754V518.186H832.903ZM904.481 495.076L877.973 552.425H872.111L845.603 495.076H859.451L874.999 532.714L890.632 495.076H904.481ZM952.524 518.186V527.786H927.376V541.55H955.838V552H915.566V495.076H955.838V505.271H927.376V518.186H952.524ZM984.68 495.076V541.38H1013.14V552H972.871V495.076H984.68ZM1052.18 493.802C1056.26 493.802 1060.08 494.538 1063.65 496.011C1067.22 497.427 1070.36 499.466 1073.08 502.128C1075.86 504.733 1078.01 507.849 1079.54 511.474C1081.12 515.099 1081.92 519.12 1081.92 523.538C1081.92 527.956 1081.12 531.978 1079.54 535.603C1078.01 539.228 1075.86 542.371 1073.08 545.033C1070.36 547.639 1067.22 549.678 1063.65 551.15C1060.08 552.566 1056.26 553.274 1052.18 553.274C1048.1 553.274 1044.25 552.566 1040.63 551.15C1037.06 549.678 1033.89 547.639 1031.11 545.033C1028.39 542.371 1026.24 539.228 1024.65 535.603C1023.12 531.978 1022.36 527.956 1022.36 523.538C1022.36 519.12 1023.12 515.099 1024.65 511.474C1026.24 507.849 1028.39 504.733 1031.11 502.128C1033.89 499.466 1037.06 497.427 1040.63 496.011C1044.25 494.538 1048.1 493.802 1052.18 493.802ZM1052.18 504.932C1048.78 504.932 1045.72 505.753 1043 507.396C1040.34 509.038 1038.25 511.247 1036.72 514.022C1035.19 516.798 1034.42 519.97 1034.42 523.538C1034.42 527.05 1035.19 530.222 1036.72 533.054C1038.25 535.829 1040.34 538.038 1043 539.681C1045.72 541.267 1048.78 542.06 1052.18 542.06C1055.58 542.06 1058.61 541.267 1061.27 539.681C1063.93 538.038 1066.03 535.829 1067.56 533.054C1069.09 530.222 1069.85 527.05 1069.85 523.538C1069.85 519.97 1069.09 516.798 1067.56 514.022C1066.03 511.247 1063.93 509.038 1061.27 507.396C1058.61 505.753 1055.58 504.932 1052.18 504.932ZM1119.09 495.076C1121.75 495.076 1124.35 495.529 1126.9 496.436C1129.45 497.342 1131.74 498.673 1133.78 500.429C1135.88 502.185 1137.52 504.309 1138.71 506.801C1139.96 509.236 1140.58 512.04 1140.58 515.212C1140.58 519.063 1139.59 522.49 1137.61 525.492C1135.68 528.438 1133.1 530.76 1129.88 532.459C1126.65 534.158 1123.14 535.008 1119.34 535.008C1116.79 535.008 1114.5 534.753 1112.46 534.243C1110.42 533.733 1108.72 533.139 1107.36 532.459V552H1095.55V495.076H1119.09ZM1107.36 506.121V522.943C1108.61 523.453 1110.11 523.906 1111.86 524.303C1113.68 524.643 1115.52 524.812 1117.39 524.812C1120.78 524.812 1123.47 523.878 1125.46 522.009C1127.5 520.083 1128.52 517.817 1128.52 515.212C1128.52 512.21 1127.38 509.944 1125.12 508.415C1122.85 506.886 1120.19 506.121 1117.13 506.121H1107.36ZM1191.17 518.186V527.786H1166.02V541.55H1194.49V552H1154.21V495.076H1194.49V505.271H1166.02V518.186H1191.17ZM1234.63 495.076C1237.29 495.076 1239.9 495.444 1242.45 496.181C1244.99 496.917 1247.29 498.05 1249.33 499.579C1251.42 501.108 1253.07 503.034 1254.25 505.356C1255.5 507.622 1256.12 510.341 1256.12 513.513C1256.12 516.854 1255.27 519.743 1253.57 522.179C1251.93 524.558 1249.75 526.427 1247.03 527.786C1244.31 529.089 1241.37 529.854 1238.2 530.08L1258.67 552H1243.12L1223.33 528.721V552H1211.52V495.076H1234.63ZM1223.33 506.121V520.479C1224.69 520.933 1226.19 521.301 1227.83 521.584C1229.53 521.811 1231.23 521.924 1232.93 521.924C1236.33 521.924 1239.02 521.244 1241 519.885C1243.04 518.469 1244.06 516.486 1244.06 513.938C1244.06 511.162 1242.98 509.18 1240.83 507.99C1238.74 506.744 1236.16 506.121 1233.1 506.121H1223.33Z" fill="#272727"/>
</g>
<defs>
<clipPath id="clip0">
<rect width="1440" height="1024" fill="white"/>
</clipPath>
<clipPath id="clip1">
<rect width="181" height="294" fill="white" transform="translate(760 237) rotate(180)"/>
</clipPath>
<clipPath id="clip2">
<rect width="199.4" height="385.9" fill="white" transform="translate(1250 8)"/>
</clipPath>
<clipPath id="clip3">
<rect width="217" height="295" fill="white" transform="translate(1223 802)"/>
</clipPath>
<clipPath id="clip4">
<rect width="168" height="341" fill="white" transform="translate(10 802)"/>
</clipPath>
<clipPath id="clip5">
<rect width="150" height="283" fill="white" transform="translate(21 18)"/>
</clipPath>
</defs>
</svg>
